G75*
%MOIN*%
%OFA0B0*%
%FSLAX25Y25*%
%IPPOS*%
%LPD*%
%AMOC8*
5,1,8,0,0,1.08239X$1,22.5*
%
%ADD10OC8,0.08500*%
%ADD11C,0.06000*%
%ADD12C,0.01600*%
D10*
X0038933Y0011800D03*
X0048933Y0011800D03*
X0058933Y0011800D03*
X0068933Y0011800D03*
D11*
X0068933Y0048800D02*
X0068933Y0054800D01*
X0058933Y0054800D02*
X0058933Y0048800D01*
X0048933Y0048800D02*
X0048933Y0054800D01*
X0038933Y0054800D02*
X0038933Y0048800D01*
D12*
X0023733Y0021986D02*
X0023733Y0006600D01*
X0035860Y0006600D01*
X0033083Y0009377D01*
X0033083Y0014223D01*
X0036510Y0017650D01*
X0041356Y0017650D01*
X0043933Y0015073D01*
X0046510Y0017650D01*
X0051356Y0017650D01*
X0053792Y0015215D01*
X0056427Y0017850D01*
X0058733Y0017850D01*
X0058733Y0012000D01*
X0059133Y0012000D01*
X0059133Y0017850D01*
X0061439Y0017850D01*
X0064074Y0015215D01*
X0066510Y0017650D01*
X0071356Y0017650D01*
X0074783Y0014223D01*
X0074783Y0009377D01*
X0072006Y0006600D01*
X0084054Y0006600D01*
X0084054Y0021941D01*
X0083217Y0021457D01*
X0080394Y0020701D01*
X0077472Y0020701D01*
X0074649Y0021457D01*
X0072118Y0022918D01*
X0070051Y0024985D01*
X0068590Y0027516D01*
X0067834Y0030339D01*
X0067834Y0033261D01*
X0068590Y0036084D01*
X0070051Y0038615D01*
X0072118Y0040682D01*
X0074649Y0042143D01*
X0077472Y0042899D01*
X0080394Y0042899D01*
X0083217Y0042143D01*
X0084054Y0041659D01*
X0084054Y0056701D01*
X0073125Y0056701D01*
X0073533Y0055715D01*
X0073533Y0047885D01*
X0072833Y0046194D01*
X0071539Y0044900D01*
X0069848Y0044200D01*
X0068018Y0044200D01*
X0066327Y0044900D01*
X0065033Y0046194D01*
X0064333Y0047885D01*
X0064333Y0055715D01*
X0064741Y0056701D01*
X0063352Y0056701D01*
X0063381Y0056643D01*
X0063615Y0055924D01*
X0063733Y0055178D01*
X0063733Y0052000D01*
X0059133Y0052000D01*
X0059133Y0051600D01*
X0059133Y0044000D01*
X0059311Y0044000D01*
X0060057Y0044118D01*
X0060776Y0044352D01*
X0061449Y0044695D01*
X0062060Y0045139D01*
X0062594Y0045673D01*
X0063038Y0046284D01*
X0063381Y0046957D01*
X0063615Y0047676D01*
X0063733Y0048422D01*
X0063733Y0051600D01*
X0059133Y0051600D01*
X0058733Y0051600D01*
X0054133Y0051600D01*
X0054133Y0048422D01*
X0054251Y0047676D01*
X0054485Y0046957D01*
X0054828Y0046284D01*
X0055272Y0045673D01*
X0055806Y0045139D01*
X0056417Y0044695D01*
X0057091Y0044352D01*
X0057809Y0044118D01*
X0058555Y0044000D01*
X0058733Y0044000D01*
X0058733Y0051600D01*
X0058733Y0052000D01*
X0054133Y0052000D01*
X0054133Y0055178D01*
X0054251Y0055924D01*
X0054485Y0056643D01*
X0054514Y0056701D01*
X0053125Y0056701D01*
X0053533Y0055715D01*
X0053533Y0047885D01*
X0052833Y0046194D01*
X0051539Y0044900D01*
X0049848Y0044200D01*
X0048018Y0044200D01*
X0046327Y0044900D01*
X0045033Y0046194D01*
X0044333Y0047885D01*
X0044333Y0055715D01*
X0044741Y0056701D01*
X0043125Y0056701D01*
X0043533Y0055715D01*
X0043533Y0047885D01*
X0042833Y0046194D01*
X0041539Y0044900D01*
X0039848Y0044200D01*
X0038018Y0044200D01*
X0036327Y0044900D01*
X0035033Y0046194D01*
X0034333Y0047885D01*
X0034333Y0055715D01*
X0034741Y0056701D01*
X0023733Y0056701D01*
X0023733Y0041614D01*
X0024649Y0042143D01*
X0027472Y0042899D01*
X0030394Y0042899D01*
X0033217Y0042143D01*
X0035748Y0040682D01*
X0037815Y0038615D01*
X0039276Y0036084D01*
X0040032Y0033261D01*
X0040032Y0030339D01*
X0039276Y0027516D01*
X0037815Y0024985D01*
X0035748Y0022918D01*
X0033217Y0021457D01*
X0030394Y0020701D01*
X0027472Y0020701D01*
X0024649Y0021457D01*
X0023733Y0021986D01*
X0023733Y0020982D02*
X0026422Y0020982D01*
X0023733Y0019384D02*
X0084054Y0019384D01*
X0084054Y0020982D02*
X0081444Y0020982D01*
X0084054Y0017785D02*
X0061504Y0017785D01*
X0063102Y0016187D02*
X0065047Y0016187D01*
X0059133Y0016187D02*
X0058733Y0016187D01*
X0058733Y0017785D02*
X0059133Y0017785D01*
X0056362Y0017785D02*
X0023733Y0017785D01*
X0023733Y0016187D02*
X0035047Y0016187D01*
X0033448Y0014588D02*
X0023733Y0014588D01*
X0023733Y0012990D02*
X0033083Y0012990D01*
X0033083Y0011391D02*
X0023733Y0011391D01*
X0023733Y0009793D02*
X0033083Y0009793D01*
X0034266Y0008194D02*
X0023733Y0008194D01*
X0031444Y0020982D02*
X0076422Y0020982D01*
X0072703Y0022581D02*
X0035163Y0022581D01*
X0037009Y0024179D02*
X0070857Y0024179D01*
X0069594Y0025778D02*
X0038272Y0025778D01*
X0039195Y0027376D02*
X0068671Y0027376D01*
X0068199Y0028975D02*
X0039667Y0028975D01*
X0040032Y0030573D02*
X0067834Y0030573D01*
X0067834Y0032172D02*
X0040032Y0032172D01*
X0039896Y0033770D02*
X0067970Y0033770D01*
X0068399Y0035369D02*
X0039468Y0035369D01*
X0038766Y0036967D02*
X0069100Y0036967D01*
X0070023Y0038566D02*
X0037843Y0038566D01*
X0036265Y0040164D02*
X0071601Y0040164D01*
X0073991Y0041763D02*
X0033875Y0041763D01*
X0036268Y0044960D02*
X0023733Y0044960D01*
X0023733Y0046558D02*
X0034883Y0046558D01*
X0034333Y0048157D02*
X0023733Y0048157D01*
X0023733Y0049755D02*
X0034333Y0049755D01*
X0034333Y0051354D02*
X0023733Y0051354D01*
X0023733Y0052952D02*
X0034333Y0052952D01*
X0034333Y0054551D02*
X0023733Y0054551D01*
X0023733Y0056149D02*
X0034513Y0056149D01*
X0043353Y0056149D02*
X0044513Y0056149D01*
X0044333Y0054551D02*
X0043533Y0054551D01*
X0043533Y0052952D02*
X0044333Y0052952D01*
X0044333Y0051354D02*
X0043533Y0051354D01*
X0043533Y0049755D02*
X0044333Y0049755D01*
X0044333Y0048157D02*
X0043533Y0048157D01*
X0042984Y0046558D02*
X0044883Y0046558D01*
X0046268Y0044960D02*
X0041598Y0044960D01*
X0051598Y0044960D02*
X0056052Y0044960D01*
X0054688Y0046558D02*
X0052984Y0046558D01*
X0053533Y0048157D02*
X0054175Y0048157D01*
X0054133Y0049755D02*
X0053533Y0049755D01*
X0053533Y0051354D02*
X0054133Y0051354D01*
X0054133Y0052952D02*
X0053533Y0052952D01*
X0053533Y0054551D02*
X0054133Y0054551D01*
X0054325Y0056149D02*
X0053353Y0056149D01*
X0058733Y0051354D02*
X0059133Y0051354D01*
X0059133Y0049755D02*
X0058733Y0049755D01*
X0058733Y0048157D02*
X0059133Y0048157D01*
X0059133Y0046558D02*
X0058733Y0046558D01*
X0058733Y0044960D02*
X0059133Y0044960D01*
X0061814Y0044960D02*
X0066268Y0044960D01*
X0064883Y0046558D02*
X0063178Y0046558D01*
X0063691Y0048157D02*
X0064333Y0048157D01*
X0064333Y0049755D02*
X0063733Y0049755D01*
X0063733Y0051354D02*
X0064333Y0051354D01*
X0064333Y0052952D02*
X0063733Y0052952D01*
X0063733Y0054551D02*
X0064333Y0054551D01*
X0064513Y0056149D02*
X0063542Y0056149D01*
X0073353Y0056149D02*
X0084054Y0056149D01*
X0084054Y0054551D02*
X0073533Y0054551D01*
X0073533Y0052952D02*
X0084054Y0052952D01*
X0084054Y0051354D02*
X0073533Y0051354D01*
X0073533Y0049755D02*
X0084054Y0049755D01*
X0084054Y0048157D02*
X0073533Y0048157D01*
X0072984Y0046558D02*
X0084054Y0046558D01*
X0084054Y0044960D02*
X0071598Y0044960D01*
X0084054Y0043361D02*
X0023733Y0043361D01*
X0023733Y0041763D02*
X0023991Y0041763D01*
X0042820Y0016187D02*
X0045047Y0016187D01*
X0052820Y0016187D02*
X0054764Y0016187D01*
X0058733Y0014588D02*
X0059133Y0014588D01*
X0059133Y0012990D02*
X0058733Y0012990D01*
X0072820Y0016187D02*
X0084054Y0016187D01*
X0084054Y0014588D02*
X0074418Y0014588D01*
X0074783Y0012990D02*
X0084054Y0012990D01*
X0084054Y0011391D02*
X0074783Y0011391D01*
X0074783Y0009793D02*
X0084054Y0009793D01*
X0084054Y0008194D02*
X0073600Y0008194D01*
X0083875Y0041763D02*
X0084054Y0041763D01*
M02*
