G75*
%MOIN*%
%OFA0B0*%
%FSLAX25Y25*%
%IPPOS*%
%LPD*%
%AMOC8*
5,1,8,0,0,1.08239X$1,22.5*
%
%ADD10OC8,0.08500*%
%ADD11R,0.07098X0.06299*%
%ADD12C,0.06000*%
%ADD13C,0.01000*%
D10*
X0038933Y0011800D03*
X0048933Y0011800D03*
X0058933Y0011800D03*
X0068933Y0011800D03*
D11*
X0064933Y0026202D03*
X0064933Y0037398D03*
X0051933Y0037398D03*
X0042933Y0037398D03*
X0042933Y0026202D03*
X0051933Y0026202D03*
D12*
X0048933Y0048800D02*
X0048933Y0054800D01*
X0038933Y0054800D02*
X0038933Y0048800D01*
X0058933Y0048800D02*
X0058933Y0054800D01*
X0068933Y0054800D02*
X0068933Y0048800D01*
D13*
X0068933Y0051800D02*
X0068933Y0041800D01*
X0066433Y0039300D01*
X0064933Y0037398D01*
X0064933Y0026202D02*
X0066433Y0024300D01*
X0068933Y0021800D01*
X0068933Y0011800D01*
X0051433Y0014300D02*
X0048933Y0011800D01*
X0051433Y0014300D02*
X0051433Y0024300D01*
X0051933Y0026202D01*
X0042933Y0026202D02*
X0041433Y0024300D01*
X0038933Y0021800D01*
X0038933Y0011800D01*
X0042933Y0037398D02*
X0041433Y0039300D01*
X0038933Y0041800D01*
X0038933Y0051800D01*
X0048933Y0051800D02*
X0048933Y0041800D01*
X0051433Y0039300D01*
X0051933Y0037398D01*
M02*
