%
M48
M72
T01C0.02400
T02C0.04000
%
T01
X120595Y105417
X201845Y169167
T02
X65595Y14167
X75595Y14167
X85595Y14167
X95595Y14167
X105595Y14167
X115595Y14167
X125595Y14167
X135595Y14167
X155595Y14167
X165595Y14167
X175595Y14167
X185595Y14167
X195595Y14167
X205595Y14167
X203595Y43167
X193595Y43167
X183595Y43167
X173595Y43167
X163595Y43167
X132595Y43167
X122595Y43167
X112595Y43167
X102595Y43167
X102595Y71167
X102595Y81167
X123595Y81167
X123595Y71167
X144595Y71167
X144595Y81167
X142895Y176067
X152895Y176067
X162895Y176067
X172895Y176067
X182895Y176067
X185595Y204167
X195595Y204167
X205595Y204167
X175595Y204167
X165595Y204167
X155595Y204167
X145595Y204167
X135595Y204167
X119395Y204267
X109395Y204267
X99395Y204267
X89395Y204267
X79395Y204267
X69395Y204267
X112895Y176067
X122895Y176067
X132895Y176067
M30
