%
M48
M72
T01C0.02400
T02C0.04000
T03C0.08661
%
T01
X134595Y86042
X158970Y81042
X175845Y74167
X148345Y57917
X200220Y98542
T02
X65595Y14167
X75595Y14167
X85595Y14167
X95595Y14167
X105595Y14167
X115595Y14167
X125595Y14167
X135595Y14167
X155595Y14167
X165595Y14167
X175595Y14167
X185595Y14167
X195595Y14167
X205595Y14167
X203595Y46167
X193595Y46167
X183595Y46167
X173595Y46167
X163595Y46167
X132595Y46167
X122595Y46167
X112595Y46167
X102595Y46167
X102595Y71167
X102595Y81167
X123595Y81167
X123595Y71167
X144595Y71167
X144595Y81167
X142295Y174267
X152295Y174267
X162295Y174267
X172295Y174267
X182295Y174267
X185595Y204167
X195595Y204167
X205595Y204167
X175595Y204167
X165595Y204167
X155595Y204167
X145595Y204167
X135595Y204167
X119395Y204267
X109395Y204267
X99395Y204267
X89395Y204267
X79395Y204267
X69395Y204267
X112295Y174267
X122295Y174267
X132295Y174267
T03
X82595Y104167
M30
