G75*
%MOIN*%
%OFA0B0*%
%FSLAX25Y25*%
%IPPOS*%
%LPD*%
%AMOC8*
5,1,8,0,0,1.08239X$1,22.5*
%
%ADD10C,0.09461*%
%ADD11C,0.06800*%
%ADD12C,0.04800*%
D10*
X0082595Y0104167D03*
D11*
X0065595Y0017167D02*
X0065595Y0011167D01*
X0075595Y0011167D02*
X0075595Y0017167D01*
X0085595Y0017167D02*
X0085595Y0011167D01*
X0095595Y0011167D02*
X0095595Y0017167D01*
X0105595Y0017167D02*
X0105595Y0011167D01*
X0115595Y0011167D02*
X0115595Y0017167D01*
X0125595Y0017167D02*
X0125595Y0011167D01*
X0135595Y0011167D02*
X0135595Y0017167D01*
X0155595Y0017167D02*
X0155595Y0011167D01*
X0165595Y0011167D02*
X0165595Y0017167D01*
X0175595Y0017167D02*
X0175595Y0011167D01*
X0185595Y0011167D02*
X0185595Y0017167D01*
X0195595Y0017167D02*
X0195595Y0011167D01*
X0205595Y0011167D02*
X0205595Y0017167D01*
X0203595Y0043167D02*
X0203595Y0049167D01*
X0193595Y0049167D02*
X0193595Y0043167D01*
X0183595Y0043167D02*
X0183595Y0049167D01*
X0173595Y0049167D02*
X0173595Y0043167D01*
X0163595Y0043167D02*
X0163595Y0049167D01*
X0147595Y0071167D02*
X0141595Y0071167D01*
X0141595Y0081167D02*
X0147595Y0081167D01*
X0126595Y0081167D02*
X0120595Y0081167D01*
X0120595Y0071167D02*
X0126595Y0071167D01*
X0105595Y0071167D02*
X0099595Y0071167D01*
X0099595Y0081167D02*
X0105595Y0081167D01*
X0102595Y0049167D02*
X0102595Y0043167D01*
X0112595Y0043167D02*
X0112595Y0049167D01*
X0122595Y0049167D02*
X0122595Y0043167D01*
X0132595Y0043167D02*
X0132595Y0049167D01*
X0132295Y0171267D02*
X0132295Y0177267D01*
X0122295Y0177267D02*
X0122295Y0171267D01*
X0112295Y0171267D02*
X0112295Y0177267D01*
X0109395Y0201267D02*
X0109395Y0207267D01*
X0099395Y0207267D02*
X0099395Y0201267D01*
X0089395Y0201267D02*
X0089395Y0207267D01*
X0079395Y0207267D02*
X0079395Y0201267D01*
X0069395Y0201267D02*
X0069395Y0207267D01*
X0119395Y0207267D02*
X0119395Y0201267D01*
X0135595Y0201167D02*
X0135595Y0207167D01*
X0145595Y0207167D02*
X0145595Y0201167D01*
X0155595Y0201167D02*
X0155595Y0207167D01*
X0165595Y0207167D02*
X0165595Y0201167D01*
X0175595Y0201167D02*
X0175595Y0207167D01*
X0185595Y0207167D02*
X0185595Y0201167D01*
X0195595Y0201167D02*
X0195595Y0207167D01*
X0205595Y0207167D02*
X0205595Y0201167D01*
X0182295Y0177267D02*
X0182295Y0171267D01*
X0172295Y0171267D02*
X0172295Y0177267D01*
X0162295Y0177267D02*
X0162295Y0171267D01*
X0152295Y0171267D02*
X0152295Y0177267D01*
X0142295Y0177267D02*
X0142295Y0171267D01*
D12*
X0200220Y0098542D03*
X0175845Y0074167D03*
X0158970Y0081042D03*
X0134595Y0086042D03*
X0148345Y0057917D03*
M02*
