G75*
%MOIN*%
%OFA0B0*%
%FSLAX25Y25*%
%IPPOS*%
%LPD*%
%AMOC8*
5,1,8,0,0,1.08239X$1,22.5*
%
%ADD10C,0.06000*%
%ADD11R,0.06299X0.07874*%
%ADD12C,0.01000*%
%ADD13C,0.04000*%
%ADD14C,0.01600*%
D10*
X0065595Y0011167D02*
X0065595Y0017167D01*
X0075595Y0017167D02*
X0075595Y0011167D01*
X0085595Y0011167D02*
X0085595Y0017167D01*
X0095595Y0017167D02*
X0095595Y0011167D01*
X0105595Y0011167D02*
X0105595Y0017167D01*
X0115595Y0017167D02*
X0115595Y0011167D01*
X0125595Y0011167D02*
X0125595Y0017167D01*
X0135595Y0017167D02*
X0135595Y0011167D01*
X0155595Y0011167D02*
X0155595Y0017167D01*
X0165595Y0017167D02*
X0165595Y0011167D01*
X0175595Y0011167D02*
X0175595Y0017167D01*
X0185595Y0017167D02*
X0185595Y0011167D01*
X0195595Y0011167D02*
X0195595Y0017167D01*
X0205595Y0017167D02*
X0205595Y0011167D01*
X0203595Y0040167D02*
X0203595Y0046167D01*
X0193595Y0046167D02*
X0193595Y0040167D01*
X0183595Y0040167D02*
X0183595Y0046167D01*
X0173595Y0046167D02*
X0173595Y0040167D01*
X0163595Y0040167D02*
X0163595Y0046167D01*
X0147595Y0071167D02*
X0141595Y0071167D01*
X0141595Y0081167D02*
X0147595Y0081167D01*
X0126595Y0081167D02*
X0120595Y0081167D01*
X0120595Y0071167D02*
X0126595Y0071167D01*
X0105595Y0071167D02*
X0099595Y0071167D01*
X0099595Y0081167D02*
X0105595Y0081167D01*
X0102595Y0046167D02*
X0102595Y0040167D01*
X0112595Y0040167D02*
X0112595Y0046167D01*
X0122595Y0046167D02*
X0122595Y0040167D01*
X0132595Y0040167D02*
X0132595Y0046167D01*
X0132895Y0173067D02*
X0132895Y0179067D01*
X0122895Y0179067D02*
X0122895Y0173067D01*
X0112895Y0173067D02*
X0112895Y0179067D01*
X0109395Y0201267D02*
X0109395Y0207267D01*
X0099395Y0207267D02*
X0099395Y0201267D01*
X0089395Y0201267D02*
X0089395Y0207267D01*
X0079395Y0207267D02*
X0079395Y0201267D01*
X0069395Y0201267D02*
X0069395Y0207267D01*
X0119395Y0207267D02*
X0119395Y0201267D01*
X0135595Y0201167D02*
X0135595Y0207167D01*
X0145595Y0207167D02*
X0145595Y0201167D01*
X0155595Y0201167D02*
X0155595Y0207167D01*
X0165595Y0207167D02*
X0165595Y0201167D01*
X0175595Y0201167D02*
X0175595Y0207167D01*
X0185595Y0207167D02*
X0185595Y0201167D01*
X0195595Y0201167D02*
X0195595Y0207167D01*
X0205595Y0207167D02*
X0205595Y0201167D01*
X0182895Y0179067D02*
X0182895Y0173067D01*
X0172895Y0173067D02*
X0172895Y0179067D01*
X0162895Y0179067D02*
X0162895Y0173067D01*
X0152895Y0173067D02*
X0152895Y0179067D01*
X0142895Y0179067D02*
X0142895Y0173067D01*
D11*
X0165083Y0081067D03*
X0176107Y0081067D03*
X0191583Y0081267D03*
X0202607Y0081267D03*
X0202007Y0063867D03*
X0190983Y0063867D03*
X0175307Y0063567D03*
X0164283Y0063567D03*
D12*
X0163095Y0062917D01*
X0104345Y0062917D01*
X0104345Y0045417D01*
X0103095Y0044167D01*
X0102595Y0043167D01*
X0112595Y0043167D02*
X0113095Y0044167D01*
X0114345Y0045417D01*
X0114345Y0056667D01*
X0178095Y0056667D01*
X0180595Y0059167D01*
X0180595Y0065417D01*
X0186845Y0071667D01*
X0186845Y0076667D01*
X0190595Y0080417D01*
X0191583Y0081267D01*
X0201845Y0081667D02*
X0202607Y0081267D01*
X0201845Y0081667D02*
X0201845Y0169167D01*
X0205595Y0179167D02*
X0185595Y0199167D01*
X0185595Y0204167D01*
X0176845Y0194167D02*
X0155595Y0194167D01*
X0155595Y0204167D01*
X0176845Y0194167D02*
X0190595Y0180417D01*
X0190595Y0170417D01*
X0184345Y0164167D01*
X0184345Y0072917D01*
X0175595Y0064167D01*
X0175307Y0063567D01*
X0181845Y0054167D02*
X0134345Y0054167D01*
X0134345Y0045417D01*
X0133095Y0044167D01*
X0132595Y0043167D01*
X0113095Y0071667D02*
X0103095Y0071667D01*
X0102595Y0071167D01*
X0102595Y0081167D02*
X0110595Y0089167D01*
X0110595Y0110417D01*
X0171845Y0171667D01*
X0171845Y0175417D01*
X0172895Y0176067D01*
X0181845Y0175417D02*
X0181845Y0171667D01*
X0113095Y0102917D01*
X0113095Y0071667D01*
X0144345Y0081667D02*
X0144595Y0081167D01*
X0145595Y0081667D01*
X0145595Y0089167D01*
X0170595Y0089167D01*
X0171845Y0087917D01*
X0171845Y0085417D01*
X0175595Y0081667D01*
X0176107Y0081067D01*
X0190983Y0063867D02*
X0190595Y0062917D01*
X0181845Y0054167D01*
X0183595Y0043167D02*
X0183095Y0042917D01*
X0183095Y0039167D01*
X0176845Y0032917D01*
X0176845Y0015417D01*
X0175595Y0014167D01*
X0195595Y0014167D02*
X0195595Y0036667D01*
X0194345Y0037917D01*
X0194345Y0042917D01*
X0193595Y0043167D01*
X0203595Y0043167D02*
X0204345Y0042917D01*
X0204345Y0037917D01*
X0205595Y0036667D01*
X0205595Y0014167D01*
X0202007Y0063867D02*
X0203095Y0064167D01*
X0211845Y0072917D01*
X0211845Y0085417D01*
X0205595Y0091667D01*
X0205595Y0179167D01*
X0182895Y0176067D02*
X0181845Y0175417D01*
X0132895Y0176067D02*
X0132895Y0179667D01*
X0126595Y0185967D01*
X0114895Y0185967D01*
X0099595Y0201267D01*
X0099595Y0203967D01*
X0099395Y0204267D01*
X0120595Y0105417D02*
X0144345Y0081667D01*
D13*
X0120595Y0105417D03*
X0201845Y0169167D03*
D14*
X0059395Y0209367D02*
X0059395Y0008967D01*
X0061527Y0008967D01*
X0060995Y0010252D01*
X0060995Y0018082D01*
X0061695Y0019772D01*
X0062989Y0021066D01*
X0064680Y0021767D01*
X0066510Y0021767D01*
X0068201Y0021066D01*
X0069495Y0019772D01*
X0070195Y0018082D01*
X0070195Y0010252D01*
X0069663Y0008967D01*
X0071527Y0008967D01*
X0070995Y0010252D01*
X0070995Y0018082D01*
X0071695Y0019772D01*
X0072989Y0021066D01*
X0074680Y0021767D01*
X0076510Y0021767D01*
X0078201Y0021066D01*
X0079495Y0019772D01*
X0080195Y0018082D01*
X0080195Y0010252D01*
X0079663Y0008967D01*
X0081527Y0008967D01*
X0080995Y0010252D01*
X0080995Y0018082D01*
X0081695Y0019772D01*
X0082989Y0021066D01*
X0084680Y0021767D01*
X0086510Y0021767D01*
X0088201Y0021066D01*
X0089495Y0019772D01*
X0090195Y0018082D01*
X0090195Y0010252D01*
X0089663Y0008967D01*
X0091527Y0008967D01*
X0090995Y0010252D01*
X0090995Y0018082D01*
X0091695Y0019772D01*
X0092989Y0021066D01*
X0094680Y0021767D01*
X0096510Y0021767D01*
X0098201Y0021066D01*
X0099495Y0019772D01*
X0100195Y0018082D01*
X0100195Y0010252D01*
X0099663Y0008967D01*
X0101527Y0008967D01*
X0100995Y0010252D01*
X0100995Y0018082D01*
X0101695Y0019772D01*
X0102989Y0021066D01*
X0104680Y0021767D01*
X0106510Y0021767D01*
X0108201Y0021066D01*
X0109495Y0019772D01*
X0110195Y0018082D01*
X0110195Y0010252D01*
X0109663Y0008967D01*
X0111527Y0008967D01*
X0110995Y0010252D01*
X0110995Y0018082D01*
X0111695Y0019772D01*
X0112989Y0021066D01*
X0114680Y0021767D01*
X0116510Y0021767D01*
X0118201Y0021066D01*
X0119495Y0019772D01*
X0120195Y0018082D01*
X0120195Y0010252D01*
X0119663Y0008967D01*
X0121329Y0008967D01*
X0121147Y0009324D01*
X0120913Y0010043D01*
X0120795Y0010789D01*
X0120795Y0013967D01*
X0125395Y0013967D01*
X0125395Y0014367D01*
X0125395Y0021967D01*
X0125217Y0021967D01*
X0124471Y0021848D01*
X0123753Y0021615D01*
X0123079Y0021272D01*
X0122468Y0020828D01*
X0121934Y0020294D01*
X0121490Y0019682D01*
X0121147Y0019009D01*
X0120913Y0018291D01*
X0120795Y0017544D01*
X0120795Y0014367D01*
X0125395Y0014367D01*
X0125795Y0014367D01*
X0125795Y0021967D01*
X0125973Y0021967D01*
X0126719Y0021848D01*
X0127438Y0021615D01*
X0128111Y0021272D01*
X0128722Y0020828D01*
X0129256Y0020294D01*
X0129700Y0019682D01*
X0130043Y0019009D01*
X0130277Y0018291D01*
X0130395Y0017544D01*
X0130395Y0014367D01*
X0125795Y0014367D01*
X0125795Y0013967D01*
X0130395Y0013967D01*
X0130395Y0010789D01*
X0130277Y0010043D01*
X0130043Y0009324D01*
X0129861Y0008967D01*
X0131527Y0008967D01*
X0130995Y0010252D01*
X0130995Y0018082D01*
X0131695Y0019772D01*
X0132989Y0021066D01*
X0134680Y0021767D01*
X0136510Y0021767D01*
X0138201Y0021066D01*
X0139495Y0019772D01*
X0140195Y0018082D01*
X0140195Y0010252D01*
X0139663Y0008967D01*
X0151527Y0008967D01*
X0150995Y0010252D01*
X0150995Y0018082D01*
X0151695Y0019772D01*
X0152989Y0021066D01*
X0154680Y0021767D01*
X0156510Y0021767D01*
X0158201Y0021066D01*
X0159495Y0019772D01*
X0160195Y0018082D01*
X0160195Y0010252D01*
X0159663Y0008967D01*
X0161527Y0008967D01*
X0160995Y0010252D01*
X0160995Y0018082D01*
X0161695Y0019772D01*
X0162989Y0021066D01*
X0164680Y0021767D01*
X0166510Y0021767D01*
X0168201Y0021066D01*
X0169495Y0019772D01*
X0170195Y0018082D01*
X0170195Y0010252D01*
X0169663Y0008967D01*
X0171527Y0008967D01*
X0170995Y0010252D01*
X0170995Y0018082D01*
X0171695Y0019772D01*
X0172989Y0021066D01*
X0174680Y0021767D01*
X0174745Y0021767D01*
X0174745Y0033787D01*
X0179351Y0038392D01*
X0178995Y0039252D01*
X0178995Y0047082D01*
X0179695Y0048772D01*
X0180989Y0050066D01*
X0182680Y0050767D01*
X0184510Y0050767D01*
X0186201Y0050066D01*
X0187495Y0048772D01*
X0188195Y0047082D01*
X0188195Y0039252D01*
X0187495Y0037561D01*
X0186201Y0036267D01*
X0184510Y0035567D01*
X0182680Y0035567D01*
X0182528Y0035630D01*
X0178945Y0032047D01*
X0178945Y0020322D01*
X0179495Y0019772D01*
X0180195Y0018082D01*
X0180195Y0010252D01*
X0179663Y0008967D01*
X0181527Y0008967D01*
X0180995Y0010252D01*
X0180995Y0018082D01*
X0181695Y0019772D01*
X0182989Y0021066D01*
X0184680Y0021767D01*
X0186510Y0021767D01*
X0188201Y0021066D01*
X0189495Y0019772D01*
X0190195Y0018082D01*
X0190195Y0010252D01*
X0189663Y0008967D01*
X0191527Y0008967D01*
X0190995Y0010252D01*
X0190995Y0018082D01*
X0191695Y0019772D01*
X0192989Y0021066D01*
X0193495Y0021276D01*
X0193495Y0035567D01*
X0192680Y0035567D01*
X0190989Y0036267D01*
X0189695Y0037561D01*
X0188995Y0039252D01*
X0188995Y0047082D01*
X0189695Y0048772D01*
X0190989Y0050066D01*
X0192680Y0050767D01*
X0194510Y0050767D01*
X0196201Y0050066D01*
X0197495Y0048772D01*
X0198195Y0047082D01*
X0198195Y0039252D01*
X0197546Y0037685D01*
X0197695Y0037537D01*
X0197695Y0021276D01*
X0198201Y0021066D01*
X0199495Y0019772D01*
X0200195Y0018082D01*
X0200195Y0010252D01*
X0199663Y0008967D01*
X0201527Y0008967D01*
X0200995Y0010252D01*
X0200995Y0018082D01*
X0201695Y0019772D01*
X0202989Y0021066D01*
X0203495Y0021276D01*
X0203495Y0035567D01*
X0202680Y0035567D01*
X0200989Y0036267D01*
X0199695Y0037561D01*
X0198995Y0039252D01*
X0198995Y0047082D01*
X0199695Y0048772D01*
X0200989Y0050066D01*
X0202680Y0050767D01*
X0204510Y0050767D01*
X0206201Y0050066D01*
X0207495Y0048772D01*
X0208195Y0047082D01*
X0208195Y0039252D01*
X0207546Y0037685D01*
X0207695Y0037537D01*
X0207695Y0021276D01*
X0208201Y0021066D01*
X0209495Y0019772D01*
X0210195Y0018082D01*
X0210195Y0010252D01*
X0209663Y0008967D01*
X0211795Y0008967D01*
X0211795Y0069897D01*
X0206757Y0064858D01*
X0206757Y0059267D01*
X0205819Y0058330D01*
X0198195Y0058330D01*
X0197257Y0059267D01*
X0197257Y0068466D01*
X0198195Y0069404D01*
X0205362Y0069404D01*
X0209745Y0073787D01*
X0209745Y0084547D01*
X0204725Y0089567D01*
X0203945Y0090347D01*
X0203945Y0086804D01*
X0206419Y0086804D01*
X0207357Y0085866D01*
X0207357Y0076667D01*
X0206419Y0075730D01*
X0198795Y0075730D01*
X0197857Y0076667D01*
X0197857Y0085866D01*
X0198795Y0086804D01*
X0199745Y0086804D01*
X0199745Y0166175D01*
X0198793Y0167127D01*
X0198245Y0168451D01*
X0198245Y0169883D01*
X0198793Y0171206D01*
X0199806Y0172219D01*
X0201129Y0172767D01*
X0202561Y0172767D01*
X0203495Y0172380D01*
X0203495Y0178297D01*
X0185225Y0196567D01*
X0184680Y0196567D01*
X0182989Y0197267D01*
X0181695Y0198561D01*
X0180995Y0200252D01*
X0180995Y0208082D01*
X0181527Y0209367D01*
X0179663Y0209367D01*
X0180195Y0208082D01*
X0180195Y0200252D01*
X0179495Y0198561D01*
X0178201Y0197267D01*
X0176510Y0196567D01*
X0174680Y0196567D01*
X0172989Y0197267D01*
X0171695Y0198561D01*
X0170995Y0200252D01*
X0170995Y0208082D01*
X0171527Y0209367D01*
X0169663Y0209367D01*
X0170195Y0208082D01*
X0170195Y0200252D01*
X0169495Y0198561D01*
X0168201Y0197267D01*
X0166510Y0196567D01*
X0164680Y0196567D01*
X0162989Y0197267D01*
X0161695Y0198561D01*
X0160995Y0200252D01*
X0160995Y0208082D01*
X0161527Y0209367D01*
X0159663Y0209367D01*
X0160195Y0208082D01*
X0160195Y0200252D01*
X0159495Y0198561D01*
X0158201Y0197267D01*
X0157695Y0197058D01*
X0157695Y0196267D01*
X0177715Y0196267D01*
X0178945Y0195037D01*
X0192695Y0181287D01*
X0192695Y0169547D01*
X0191465Y0168317D01*
X0186445Y0163297D01*
X0186445Y0079236D01*
X0186834Y0079625D01*
X0186834Y0085866D01*
X0187771Y0086804D01*
X0195396Y0086804D01*
X0196333Y0085866D01*
X0196333Y0076667D01*
X0195396Y0075730D01*
X0188945Y0075730D01*
X0188945Y0070797D01*
X0187552Y0069404D01*
X0194796Y0069404D01*
X0195733Y0068466D01*
X0195733Y0059267D01*
X0194796Y0058330D01*
X0188978Y0058330D01*
X0182715Y0052067D01*
X0136445Y0052067D01*
X0136445Y0048822D01*
X0136495Y0048772D01*
X0137195Y0047082D01*
X0137195Y0039252D01*
X0136495Y0037561D01*
X0135201Y0036267D01*
X0133510Y0035567D01*
X0131680Y0035567D01*
X0129989Y0036267D01*
X0128695Y0037561D01*
X0127995Y0039252D01*
X0127995Y0047082D01*
X0128695Y0048772D01*
X0129989Y0050066D01*
X0131680Y0050767D01*
X0132245Y0050767D01*
X0132245Y0054567D01*
X0116445Y0054567D01*
X0116445Y0048822D01*
X0116495Y0048772D01*
X0117195Y0047082D01*
X0117195Y0039252D01*
X0116495Y0037561D01*
X0115201Y0036267D01*
X0113510Y0035567D01*
X0111680Y0035567D01*
X0109989Y0036267D01*
X0108695Y0037561D01*
X0107995Y0039252D01*
X0107995Y0047082D01*
X0108695Y0048772D01*
X0109989Y0050066D01*
X0111680Y0050767D01*
X0112245Y0050767D01*
X0112245Y0057537D01*
X0113475Y0058767D01*
X0159734Y0058767D01*
X0159534Y0058967D01*
X0159534Y0060817D01*
X0106445Y0060817D01*
X0106445Y0048822D01*
X0106495Y0048772D01*
X0107195Y0047082D01*
X0107195Y0039252D01*
X0106495Y0037561D01*
X0105201Y0036267D01*
X0103510Y0035567D01*
X0101680Y0035567D01*
X0099989Y0036267D01*
X0098695Y0037561D01*
X0097995Y0039252D01*
X0097995Y0047082D01*
X0098695Y0048772D01*
X0099989Y0050066D01*
X0101680Y0050767D01*
X0102245Y0050767D01*
X0102245Y0063787D01*
X0103475Y0065017D01*
X0159534Y0065017D01*
X0159534Y0068166D01*
X0160471Y0069104D01*
X0168096Y0069104D01*
X0169033Y0068166D01*
X0169033Y0058967D01*
X0168833Y0058767D01*
X0170758Y0058767D01*
X0170557Y0058967D01*
X0170557Y0068166D01*
X0171495Y0069104D01*
X0177562Y0069104D01*
X0182245Y0073787D01*
X0182245Y0165037D01*
X0188495Y0171287D01*
X0188495Y0179547D01*
X0187095Y0180946D01*
X0187495Y0179982D01*
X0187495Y0172152D01*
X0186795Y0170461D01*
X0185501Y0169167D01*
X0183810Y0168467D01*
X0181980Y0168467D01*
X0181722Y0168574D01*
X0121915Y0108767D01*
X0122634Y0108469D01*
X0123647Y0107456D01*
X0124195Y0106133D01*
X0124195Y0104786D01*
X0143215Y0085767D01*
X0143495Y0085767D01*
X0143495Y0090037D01*
X0144725Y0091267D01*
X0171465Y0091267D01*
X0172695Y0090037D01*
X0173945Y0088787D01*
X0173945Y0086604D01*
X0179919Y0086604D01*
X0180857Y0085666D01*
X0180857Y0076467D01*
X0179919Y0075530D01*
X0172295Y0075530D01*
X0171357Y0076467D01*
X0171357Y0082935D01*
X0170975Y0083317D01*
X0170033Y0084259D01*
X0170033Y0081841D01*
X0165858Y0081841D01*
X0165858Y0080292D01*
X0165858Y0075330D01*
X0168470Y0075330D01*
X0168928Y0075452D01*
X0169338Y0075689D01*
X0169673Y0076024D01*
X0169910Y0076435D01*
X0170033Y0076893D01*
X0170033Y0080292D01*
X0165858Y0080292D01*
X0164309Y0080292D01*
X0164309Y0075330D01*
X0161697Y0075330D01*
X0161239Y0075452D01*
X0160828Y0075689D01*
X0160493Y0076024D01*
X0160256Y0076435D01*
X0160134Y0076893D01*
X0160134Y0080292D01*
X0164308Y0080292D01*
X0164308Y0081841D01*
X0160134Y0081841D01*
X0160134Y0085241D01*
X0160256Y0085698D01*
X0160493Y0086109D01*
X0160828Y0086444D01*
X0161239Y0086681D01*
X0161697Y0086804D01*
X0164309Y0086804D01*
X0164309Y0081842D01*
X0165858Y0081842D01*
X0165858Y0086804D01*
X0168470Y0086804D01*
X0168928Y0086681D01*
X0169338Y0086444D01*
X0169673Y0086109D01*
X0169745Y0085984D01*
X0169745Y0087047D01*
X0169725Y0087067D01*
X0147695Y0087067D01*
X0147695Y0085767D01*
X0148510Y0085767D01*
X0150201Y0085066D01*
X0151495Y0083772D01*
X0152195Y0082082D01*
X0152195Y0080252D01*
X0151495Y0078561D01*
X0150201Y0077267D01*
X0148510Y0076567D01*
X0140680Y0076567D01*
X0138989Y0077267D01*
X0137695Y0078561D01*
X0136995Y0080252D01*
X0136995Y0082082D01*
X0137695Y0083772D01*
X0138483Y0084559D01*
X0121225Y0101817D01*
X0119879Y0101817D01*
X0118556Y0102365D01*
X0117543Y0103377D01*
X0117245Y0104097D01*
X0115195Y0102047D01*
X0115195Y0070797D01*
X0113965Y0069567D01*
X0109911Y0069567D01*
X0109495Y0068561D01*
X0108201Y0067267D01*
X0106510Y0066567D01*
X0098680Y0066567D01*
X0096989Y0067267D01*
X0095695Y0068561D01*
X0094995Y0070252D01*
X0094995Y0072082D01*
X0095695Y0073772D01*
X0096989Y0075066D01*
X0098680Y0075767D01*
X0106510Y0075767D01*
X0108201Y0075066D01*
X0109495Y0073772D01*
X0109497Y0073767D01*
X0110995Y0073767D01*
X0110995Y0086597D01*
X0108833Y0084434D01*
X0109495Y0083772D01*
X0110195Y0082082D01*
X0110195Y0080252D01*
X0109495Y0078561D01*
X0108201Y0077267D01*
X0106510Y0076567D01*
X0098680Y0076567D01*
X0096989Y0077267D01*
X0095695Y0078561D01*
X0094995Y0080252D01*
X0094995Y0082082D01*
X0095695Y0083772D01*
X0096989Y0085066D01*
X0098680Y0085767D01*
X0104225Y0085767D01*
X0108495Y0090037D01*
X0108495Y0111287D01*
X0168607Y0171398D01*
X0168295Y0172152D01*
X0168295Y0179982D01*
X0168995Y0181672D01*
X0170289Y0182966D01*
X0171980Y0183667D01*
X0173810Y0183667D01*
X0175501Y0182966D01*
X0176795Y0181672D01*
X0177495Y0179982D01*
X0177495Y0172152D01*
X0176795Y0170461D01*
X0175501Y0169167D01*
X0173810Y0168467D01*
X0171980Y0168467D01*
X0171722Y0168574D01*
X0112695Y0109547D01*
X0112695Y0105486D01*
X0178607Y0171398D01*
X0178295Y0172152D01*
X0178295Y0179982D01*
X0178995Y0181672D01*
X0180289Y0182966D01*
X0181980Y0183667D01*
X0183810Y0183667D01*
X0184775Y0183267D01*
X0175975Y0192067D01*
X0154725Y0192067D01*
X0153495Y0193297D01*
X0153495Y0197058D01*
X0152989Y0197267D01*
X0151695Y0198561D01*
X0150995Y0200252D01*
X0150995Y0208082D01*
X0151527Y0209367D01*
X0149663Y0209367D01*
X0150195Y0208082D01*
X0150195Y0200252D01*
X0149495Y0198561D01*
X0148201Y0197267D01*
X0146510Y0196567D01*
X0144680Y0196567D01*
X0142989Y0197267D01*
X0141695Y0198561D01*
X0140995Y0200252D01*
X0140995Y0208082D01*
X0141527Y0209367D01*
X0139663Y0209367D01*
X0140195Y0208082D01*
X0140195Y0200252D01*
X0139495Y0198561D01*
X0138201Y0197267D01*
X0136510Y0196567D01*
X0134680Y0196567D01*
X0132989Y0197267D01*
X0131695Y0198561D01*
X0130995Y0200252D01*
X0130995Y0208082D01*
X0131527Y0209367D01*
X0123504Y0209367D01*
X0123995Y0208182D01*
X0123995Y0200352D01*
X0123295Y0198661D01*
X0122001Y0197367D01*
X0120310Y0196667D01*
X0118480Y0196667D01*
X0116789Y0197367D01*
X0115495Y0198661D01*
X0114795Y0200352D01*
X0114795Y0208182D01*
X0115286Y0209367D01*
X0113504Y0209367D01*
X0113995Y0208182D01*
X0113995Y0200352D01*
X0113295Y0198661D01*
X0112001Y0197367D01*
X0110310Y0196667D01*
X0108480Y0196667D01*
X0106789Y0197367D01*
X0105495Y0198661D01*
X0104795Y0200352D01*
X0104795Y0208182D01*
X0105286Y0209367D01*
X0103504Y0209367D01*
X0103995Y0208182D01*
X0103995Y0200352D01*
X0103844Y0199987D01*
X0115765Y0188067D01*
X0127465Y0188067D01*
X0131899Y0183633D01*
X0131980Y0183667D01*
X0133810Y0183667D01*
X0135501Y0182966D01*
X0136795Y0181672D01*
X0137495Y0179982D01*
X0137495Y0172152D01*
X0136795Y0170461D01*
X0135501Y0169167D01*
X0133810Y0168467D01*
X0131980Y0168467D01*
X0130289Y0169167D01*
X0128995Y0170461D01*
X0128295Y0172152D01*
X0128295Y0179982D01*
X0128680Y0180912D01*
X0125725Y0183867D01*
X0114025Y0183867D01*
X0112795Y0185097D01*
X0100957Y0196935D01*
X0100310Y0196667D01*
X0098480Y0196667D01*
X0096789Y0197367D01*
X0095495Y0198661D01*
X0094795Y0200352D01*
X0094795Y0208182D01*
X0095286Y0209367D01*
X0093504Y0209367D01*
X0093995Y0208182D01*
X0093995Y0200352D01*
X0093295Y0198661D01*
X0092001Y0197367D01*
X0090310Y0196667D01*
X0088480Y0196667D01*
X0086789Y0197367D01*
X0085495Y0198661D01*
X0084795Y0200352D01*
X0084795Y0208182D01*
X0085286Y0209367D01*
X0083504Y0209367D01*
X0083995Y0208182D01*
X0083995Y0200352D01*
X0083295Y0198661D01*
X0082001Y0197367D01*
X0080310Y0196667D01*
X0078480Y0196667D01*
X0076789Y0197367D01*
X0075495Y0198661D01*
X0074795Y0200352D01*
X0074795Y0208182D01*
X0075286Y0209367D01*
X0073504Y0209367D01*
X0073995Y0208182D01*
X0073995Y0200352D01*
X0073295Y0198661D01*
X0072001Y0197367D01*
X0070310Y0196667D01*
X0068480Y0196667D01*
X0066789Y0197367D01*
X0065495Y0198661D01*
X0064795Y0200352D01*
X0064795Y0208182D01*
X0065286Y0209367D01*
X0059395Y0209367D01*
X0059395Y0208776D02*
X0065041Y0208776D01*
X0064795Y0207178D02*
X0059395Y0207178D01*
X0059395Y0205579D02*
X0064795Y0205579D01*
X0064795Y0203981D02*
X0059395Y0203981D01*
X0059395Y0202382D02*
X0064795Y0202382D01*
X0064795Y0200784D02*
X0059395Y0200784D01*
X0059395Y0199185D02*
X0065278Y0199185D01*
X0066570Y0197587D02*
X0059395Y0197587D01*
X0059395Y0195988D02*
X0101904Y0195988D01*
X0103502Y0194390D02*
X0059395Y0194390D01*
X0059395Y0192791D02*
X0105101Y0192791D01*
X0106699Y0191192D02*
X0059395Y0191192D01*
X0059395Y0189594D02*
X0108298Y0189594D01*
X0109896Y0187995D02*
X0059395Y0187995D01*
X0059395Y0186397D02*
X0111495Y0186397D01*
X0113094Y0184798D02*
X0059395Y0184798D01*
X0059395Y0183200D02*
X0110853Y0183200D01*
X0110289Y0182966D02*
X0108995Y0181672D01*
X0108295Y0179982D01*
X0108295Y0172152D01*
X0108995Y0170461D01*
X0110289Y0169167D01*
X0111980Y0168467D01*
X0113810Y0168467D01*
X0115501Y0169167D01*
X0116795Y0170461D01*
X0117495Y0172152D01*
X0117495Y0179982D01*
X0116795Y0181672D01*
X0115501Y0182966D01*
X0113810Y0183667D01*
X0111980Y0183667D01*
X0110289Y0182966D01*
X0108966Y0181601D02*
X0059395Y0181601D01*
X0059395Y0180003D02*
X0108304Y0180003D01*
X0108295Y0178404D02*
X0059395Y0178404D01*
X0059395Y0176806D02*
X0108295Y0176806D01*
X0108295Y0175207D02*
X0059395Y0175207D01*
X0059395Y0173609D02*
X0108295Y0173609D01*
X0108354Y0172010D02*
X0059395Y0172010D01*
X0059395Y0170412D02*
X0109045Y0170412D01*
X0111143Y0168813D02*
X0059395Y0168813D01*
X0059395Y0167215D02*
X0164423Y0167215D01*
X0163810Y0168467D02*
X0161980Y0168467D01*
X0160289Y0169167D01*
X0158995Y0170461D01*
X0158295Y0172152D01*
X0158295Y0179982D01*
X0158995Y0181672D01*
X0160289Y0182966D01*
X0161980Y0183667D01*
X0163810Y0183667D01*
X0165501Y0182966D01*
X0166795Y0181672D01*
X0167495Y0179982D01*
X0167495Y0172152D01*
X0166795Y0170461D01*
X0165501Y0169167D01*
X0163810Y0168467D01*
X0164647Y0168813D02*
X0166022Y0168813D01*
X0166746Y0170412D02*
X0167620Y0170412D01*
X0167437Y0172010D02*
X0168354Y0172010D01*
X0168295Y0173609D02*
X0167495Y0173609D01*
X0167495Y0175207D02*
X0168295Y0175207D01*
X0168295Y0176806D02*
X0167495Y0176806D01*
X0167495Y0178404D02*
X0168295Y0178404D01*
X0168304Y0180003D02*
X0167486Y0180003D01*
X0166824Y0181601D02*
X0168966Y0181601D01*
X0170853Y0183200D02*
X0164937Y0183200D01*
X0160853Y0183200D02*
X0154937Y0183200D01*
X0155501Y0182966D02*
X0153810Y0183667D01*
X0151980Y0183667D01*
X0150289Y0182966D01*
X0148995Y0181672D01*
X0148295Y0179982D01*
X0148295Y0172152D01*
X0148995Y0170461D01*
X0150289Y0169167D01*
X0151980Y0168467D01*
X0153810Y0168467D01*
X0155501Y0169167D01*
X0156795Y0170461D01*
X0157495Y0172152D01*
X0157495Y0179982D01*
X0156795Y0181672D01*
X0155501Y0182966D01*
X0156824Y0181601D02*
X0158966Y0181601D01*
X0158304Y0180003D02*
X0157486Y0180003D01*
X0157495Y0178404D02*
X0158295Y0178404D01*
X0158295Y0176806D02*
X0157495Y0176806D01*
X0157495Y0175207D02*
X0158295Y0175207D01*
X0158295Y0173609D02*
X0157495Y0173609D01*
X0157437Y0172010D02*
X0158354Y0172010D01*
X0159045Y0170412D02*
X0156746Y0170412D01*
X0154647Y0168813D02*
X0161143Y0168813D01*
X0162825Y0165616D02*
X0059395Y0165616D01*
X0059395Y0164018D02*
X0161226Y0164018D01*
X0159628Y0162419D02*
X0059395Y0162419D01*
X0059395Y0160821D02*
X0158029Y0160821D01*
X0156431Y0159222D02*
X0059395Y0159222D01*
X0059395Y0157624D02*
X0154832Y0157624D01*
X0153234Y0156025D02*
X0059395Y0156025D01*
X0059395Y0154427D02*
X0151635Y0154427D01*
X0150037Y0152828D02*
X0059395Y0152828D01*
X0059395Y0151230D02*
X0148438Y0151230D01*
X0146840Y0149631D02*
X0059395Y0149631D01*
X0059395Y0148033D02*
X0145241Y0148033D01*
X0143643Y0146434D02*
X0059395Y0146434D01*
X0059395Y0144836D02*
X0142044Y0144836D01*
X0140446Y0143237D02*
X0059395Y0143237D01*
X0059395Y0141639D02*
X0138847Y0141639D01*
X0137249Y0140040D02*
X0059395Y0140040D01*
X0059395Y0138442D02*
X0135650Y0138442D01*
X0134052Y0136843D02*
X0059395Y0136843D01*
X0059395Y0135245D02*
X0132453Y0135245D01*
X0130855Y0133646D02*
X0059395Y0133646D01*
X0059395Y0132048D02*
X0129256Y0132048D01*
X0127658Y0130449D02*
X0059395Y0130449D01*
X0059395Y0128851D02*
X0126059Y0128851D01*
X0124461Y0127252D02*
X0059395Y0127252D01*
X0059395Y0125654D02*
X0122862Y0125654D01*
X0121264Y0124055D02*
X0059395Y0124055D01*
X0059395Y0122456D02*
X0119665Y0122456D01*
X0118067Y0120858D02*
X0059395Y0120858D01*
X0059395Y0119259D02*
X0116468Y0119259D01*
X0114870Y0117661D02*
X0059395Y0117661D01*
X0059395Y0116062D02*
X0113271Y0116062D01*
X0111673Y0114464D02*
X0059395Y0114464D01*
X0059395Y0112865D02*
X0110074Y0112865D01*
X0108495Y0111267D02*
X0059395Y0111267D01*
X0059395Y0109668D02*
X0108495Y0109668D01*
X0108495Y0108070D02*
X0059395Y0108070D01*
X0059395Y0106471D02*
X0108495Y0106471D01*
X0108495Y0104873D02*
X0059395Y0104873D01*
X0059395Y0103274D02*
X0108495Y0103274D01*
X0108495Y0101676D02*
X0059395Y0101676D01*
X0059395Y0100077D02*
X0108495Y0100077D01*
X0108495Y0098479D02*
X0059395Y0098479D01*
X0059395Y0096880D02*
X0108495Y0096880D01*
X0108495Y0095282D02*
X0059395Y0095282D01*
X0059395Y0093683D02*
X0108495Y0093683D01*
X0108495Y0092085D02*
X0059395Y0092085D01*
X0059395Y0090486D02*
X0108495Y0090486D01*
X0107346Y0088888D02*
X0059395Y0088888D01*
X0059395Y0087289D02*
X0105748Y0087289D01*
X0110089Y0085691D02*
X0110995Y0085691D01*
X0110995Y0084092D02*
X0109175Y0084092D01*
X0110024Y0082494D02*
X0110995Y0082494D01*
X0110995Y0080895D02*
X0110195Y0080895D01*
X0109800Y0079297D02*
X0110995Y0079297D01*
X0110995Y0077698D02*
X0108632Y0077698D01*
X0110995Y0076100D02*
X0059395Y0076100D01*
X0059395Y0077698D02*
X0096558Y0077698D01*
X0095391Y0079297D02*
X0059395Y0079297D01*
X0059395Y0080895D02*
X0094995Y0080895D01*
X0095166Y0082494D02*
X0059395Y0082494D01*
X0059395Y0084092D02*
X0096015Y0084092D01*
X0098497Y0085691D02*
X0059395Y0085691D01*
X0059395Y0074501D02*
X0096424Y0074501D01*
X0095335Y0072903D02*
X0059395Y0072903D01*
X0059395Y0071304D02*
X0094995Y0071304D01*
X0095221Y0069706D02*
X0059395Y0069706D01*
X0059395Y0068107D02*
X0096149Y0068107D01*
X0102245Y0063312D02*
X0059395Y0063312D01*
X0059395Y0064910D02*
X0103369Y0064910D01*
X0102245Y0061713D02*
X0059395Y0061713D01*
X0059395Y0060115D02*
X0102245Y0060115D01*
X0102245Y0058516D02*
X0059395Y0058516D01*
X0059395Y0056918D02*
X0102245Y0056918D01*
X0102245Y0055319D02*
X0059395Y0055319D01*
X0059395Y0053721D02*
X0102245Y0053721D01*
X0102245Y0052122D02*
X0059395Y0052122D01*
X0059395Y0050523D02*
X0101093Y0050523D01*
X0098848Y0048925D02*
X0059395Y0048925D01*
X0059395Y0047326D02*
X0098097Y0047326D01*
X0097995Y0045728D02*
X0059395Y0045728D01*
X0059395Y0044129D02*
X0097995Y0044129D01*
X0097995Y0042531D02*
X0059395Y0042531D01*
X0059395Y0040932D02*
X0097995Y0040932D01*
X0097995Y0039334D02*
X0059395Y0039334D01*
X0059395Y0037735D02*
X0098623Y0037735D01*
X0100303Y0036137D02*
X0059395Y0036137D01*
X0059395Y0034538D02*
X0175497Y0034538D01*
X0174510Y0035567D02*
X0172680Y0035567D01*
X0170989Y0036267D01*
X0169695Y0037561D01*
X0168995Y0039252D01*
X0168995Y0047082D01*
X0169695Y0048772D01*
X0170989Y0050066D01*
X0172680Y0050767D01*
X0174510Y0050767D01*
X0176201Y0050066D01*
X0177495Y0048772D01*
X0178195Y0047082D01*
X0178195Y0039252D01*
X0177495Y0037561D01*
X0176201Y0036267D01*
X0174510Y0035567D01*
X0175887Y0036137D02*
X0177096Y0036137D01*
X0177567Y0037735D02*
X0178694Y0037735D01*
X0178995Y0039334D02*
X0178195Y0039334D01*
X0178195Y0040932D02*
X0178995Y0040932D01*
X0178995Y0042531D02*
X0178195Y0042531D01*
X0178195Y0044129D02*
X0178995Y0044129D01*
X0178995Y0045728D02*
X0178195Y0045728D01*
X0178094Y0047326D02*
X0179097Y0047326D01*
X0179848Y0048925D02*
X0177342Y0048925D01*
X0175097Y0050523D02*
X0182093Y0050523D01*
X0182770Y0052122D02*
X0211795Y0052122D01*
X0211795Y0053721D02*
X0184369Y0053721D01*
X0185967Y0055319D02*
X0211795Y0055319D01*
X0211795Y0056918D02*
X0187566Y0056918D01*
X0185097Y0050523D02*
X0192093Y0050523D01*
X0189848Y0048925D02*
X0187342Y0048925D01*
X0188094Y0047326D02*
X0189097Y0047326D01*
X0188995Y0045728D02*
X0188195Y0045728D01*
X0188195Y0044129D02*
X0188995Y0044129D01*
X0188995Y0042531D02*
X0188195Y0042531D01*
X0188195Y0040932D02*
X0188995Y0040932D01*
X0188995Y0039334D02*
X0188195Y0039334D01*
X0187567Y0037735D02*
X0189623Y0037735D01*
X0191303Y0036137D02*
X0185887Y0036137D01*
X0181437Y0034538D02*
X0193495Y0034538D01*
X0193495Y0032940D02*
X0179838Y0032940D01*
X0178945Y0031341D02*
X0193495Y0031341D01*
X0193495Y0029743D02*
X0178945Y0029743D01*
X0178945Y0028144D02*
X0193495Y0028144D01*
X0193495Y0026546D02*
X0178945Y0026546D01*
X0178945Y0024947D02*
X0193495Y0024947D01*
X0193495Y0023349D02*
X0178945Y0023349D01*
X0178945Y0021750D02*
X0184641Y0021750D01*
X0186550Y0021750D02*
X0193495Y0021750D01*
X0192075Y0020152D02*
X0189115Y0020152D01*
X0190000Y0018553D02*
X0191190Y0018553D01*
X0190995Y0016955D02*
X0190195Y0016955D01*
X0190195Y0015356D02*
X0190995Y0015356D01*
X0190995Y0013758D02*
X0190195Y0013758D01*
X0190195Y0012159D02*
X0190995Y0012159D01*
X0190995Y0010561D02*
X0190195Y0010561D01*
X0180995Y0010561D02*
X0180195Y0010561D01*
X0180195Y0012159D02*
X0180995Y0012159D01*
X0180995Y0013758D02*
X0180195Y0013758D01*
X0180195Y0015356D02*
X0180995Y0015356D01*
X0180995Y0016955D02*
X0180195Y0016955D01*
X0180000Y0018553D02*
X0181190Y0018553D01*
X0182075Y0020152D02*
X0179115Y0020152D01*
X0174641Y0021750D02*
X0166550Y0021750D01*
X0164641Y0021750D02*
X0156550Y0021750D01*
X0154641Y0021750D02*
X0136550Y0021750D01*
X0134641Y0021750D02*
X0127021Y0021750D01*
X0125795Y0021750D02*
X0125395Y0021750D01*
X0124169Y0021750D02*
X0116550Y0021750D01*
X0114641Y0021750D02*
X0106550Y0021750D01*
X0104641Y0021750D02*
X0096550Y0021750D01*
X0094641Y0021750D02*
X0086550Y0021750D01*
X0084641Y0021750D02*
X0076550Y0021750D01*
X0074641Y0021750D02*
X0066550Y0021750D01*
X0064641Y0021750D02*
X0059395Y0021750D01*
X0059395Y0020152D02*
X0062075Y0020152D01*
X0061190Y0018553D02*
X0059395Y0018553D01*
X0059395Y0016955D02*
X0060995Y0016955D01*
X0060995Y0015356D02*
X0059395Y0015356D01*
X0059395Y0013758D02*
X0060995Y0013758D01*
X0060995Y0012159D02*
X0059395Y0012159D01*
X0059395Y0010561D02*
X0060995Y0010561D01*
X0070195Y0010561D02*
X0070995Y0010561D01*
X0070995Y0012159D02*
X0070195Y0012159D01*
X0070195Y0013758D02*
X0070995Y0013758D01*
X0070995Y0015356D02*
X0070195Y0015356D01*
X0070195Y0016955D02*
X0070995Y0016955D01*
X0071190Y0018553D02*
X0070000Y0018553D01*
X0069115Y0020152D02*
X0072075Y0020152D01*
X0079115Y0020152D02*
X0082075Y0020152D01*
X0081190Y0018553D02*
X0080000Y0018553D01*
X0080195Y0016955D02*
X0080995Y0016955D01*
X0080995Y0015356D02*
X0080195Y0015356D01*
X0080195Y0013758D02*
X0080995Y0013758D01*
X0080995Y0012159D02*
X0080195Y0012159D01*
X0080195Y0010561D02*
X0080995Y0010561D01*
X0090195Y0010561D02*
X0090995Y0010561D01*
X0090995Y0012159D02*
X0090195Y0012159D01*
X0090195Y0013758D02*
X0090995Y0013758D01*
X0090995Y0015356D02*
X0090195Y0015356D01*
X0090195Y0016955D02*
X0090995Y0016955D01*
X0091190Y0018553D02*
X0090000Y0018553D01*
X0089115Y0020152D02*
X0092075Y0020152D01*
X0099115Y0020152D02*
X0102075Y0020152D01*
X0101190Y0018553D02*
X0100000Y0018553D01*
X0100195Y0016955D02*
X0100995Y0016955D01*
X0100995Y0015356D02*
X0100195Y0015356D01*
X0100195Y0013758D02*
X0100995Y0013758D01*
X0100995Y0012159D02*
X0100195Y0012159D01*
X0100195Y0010561D02*
X0100995Y0010561D01*
X0110000Y0018553D02*
X0111190Y0018553D01*
X0110995Y0016955D02*
X0110195Y0016955D01*
X0110195Y0015356D02*
X0110995Y0015356D01*
X0110995Y0013758D02*
X0110195Y0013758D01*
X0110195Y0012159D02*
X0110995Y0012159D01*
X0110995Y0010561D02*
X0110195Y0010561D01*
X0120195Y0010561D02*
X0120831Y0010561D01*
X0120795Y0012159D02*
X0120195Y0012159D01*
X0120195Y0013758D02*
X0120795Y0013758D01*
X0120795Y0015356D02*
X0120195Y0015356D01*
X0120195Y0016955D02*
X0120795Y0016955D01*
X0120999Y0018553D02*
X0120000Y0018553D01*
X0119115Y0020152D02*
X0121831Y0020152D01*
X0125395Y0020152D02*
X0125795Y0020152D01*
X0125795Y0018553D02*
X0125395Y0018553D01*
X0125395Y0016955D02*
X0125795Y0016955D01*
X0125795Y0015356D02*
X0125395Y0015356D01*
X0130395Y0015356D02*
X0130995Y0015356D01*
X0130995Y0013758D02*
X0130395Y0013758D01*
X0130395Y0012159D02*
X0130995Y0012159D01*
X0130995Y0010561D02*
X0130359Y0010561D01*
X0130395Y0016955D02*
X0130995Y0016955D01*
X0131190Y0018553D02*
X0130192Y0018553D01*
X0129359Y0020152D02*
X0132075Y0020152D01*
X0139115Y0020152D02*
X0152075Y0020152D01*
X0151190Y0018553D02*
X0140000Y0018553D01*
X0140195Y0016955D02*
X0150995Y0016955D01*
X0150995Y0015356D02*
X0140195Y0015356D01*
X0140195Y0013758D02*
X0150995Y0013758D01*
X0150995Y0012159D02*
X0140195Y0012159D01*
X0140195Y0010561D02*
X0150995Y0010561D01*
X0160195Y0010561D02*
X0160995Y0010561D01*
X0160995Y0012159D02*
X0160195Y0012159D01*
X0160195Y0013758D02*
X0160995Y0013758D01*
X0160995Y0015356D02*
X0160195Y0015356D01*
X0160195Y0016955D02*
X0160995Y0016955D01*
X0161190Y0018553D02*
X0160000Y0018553D01*
X0159115Y0020152D02*
X0162075Y0020152D01*
X0169115Y0020152D02*
X0172075Y0020152D01*
X0171190Y0018553D02*
X0170000Y0018553D01*
X0170195Y0016955D02*
X0170995Y0016955D01*
X0170995Y0015356D02*
X0170195Y0015356D01*
X0170195Y0013758D02*
X0170995Y0013758D01*
X0170995Y0012159D02*
X0170195Y0012159D01*
X0170195Y0010561D02*
X0170995Y0010561D01*
X0174745Y0023349D02*
X0059395Y0023349D01*
X0059395Y0024947D02*
X0174745Y0024947D01*
X0174745Y0026546D02*
X0059395Y0026546D01*
X0059395Y0028144D02*
X0174745Y0028144D01*
X0174745Y0029743D02*
X0059395Y0029743D01*
X0059395Y0031341D02*
X0174745Y0031341D01*
X0174745Y0032940D02*
X0059395Y0032940D01*
X0059395Y0066509D02*
X0159534Y0066509D01*
X0159534Y0068107D02*
X0151041Y0068107D01*
X0151495Y0068561D02*
X0152195Y0070252D01*
X0152195Y0072082D01*
X0151495Y0073772D01*
X0150201Y0075066D01*
X0148510Y0075767D01*
X0140680Y0075767D01*
X0138989Y0075066D01*
X0137695Y0073772D01*
X0136995Y0072082D01*
X0136995Y0070252D01*
X0137695Y0068561D01*
X0138989Y0067267D01*
X0140680Y0066567D01*
X0148510Y0066567D01*
X0150201Y0067267D01*
X0151495Y0068561D01*
X0151969Y0069706D02*
X0178164Y0069706D01*
X0179763Y0071304D02*
X0152195Y0071304D01*
X0151855Y0072903D02*
X0181361Y0072903D01*
X0182245Y0074501D02*
X0150766Y0074501D01*
X0150632Y0077698D02*
X0160134Y0077698D01*
X0160134Y0079297D02*
X0151800Y0079297D01*
X0152195Y0080895D02*
X0164308Y0080895D01*
X0165858Y0080895D02*
X0171357Y0080895D01*
X0171357Y0079297D02*
X0170033Y0079297D01*
X0170033Y0077698D02*
X0171357Y0077698D01*
X0171725Y0076100D02*
X0169717Y0076100D01*
X0165858Y0076100D02*
X0164309Y0076100D01*
X0164309Y0077698D02*
X0165858Y0077698D01*
X0165858Y0079297D02*
X0164309Y0079297D01*
X0164309Y0082494D02*
X0165858Y0082494D01*
X0165858Y0084092D02*
X0164309Y0084092D01*
X0164309Y0085691D02*
X0165858Y0085691D01*
X0170033Y0084092D02*
X0170200Y0084092D01*
X0170033Y0082494D02*
X0171357Y0082494D01*
X0173945Y0087289D02*
X0182245Y0087289D01*
X0182245Y0085691D02*
X0180832Y0085691D01*
X0180857Y0084092D02*
X0182245Y0084092D01*
X0182245Y0082494D02*
X0180857Y0082494D01*
X0180857Y0080895D02*
X0182245Y0080895D01*
X0182245Y0079297D02*
X0180857Y0079297D01*
X0180857Y0077698D02*
X0182245Y0077698D01*
X0182245Y0076100D02*
X0180489Y0076100D01*
X0186445Y0079297D02*
X0186505Y0079297D01*
X0186445Y0080895D02*
X0186834Y0080895D01*
X0186834Y0082494D02*
X0186445Y0082494D01*
X0186445Y0084092D02*
X0186834Y0084092D01*
X0186834Y0085691D02*
X0186445Y0085691D01*
X0186445Y0087289D02*
X0199745Y0087289D01*
X0199745Y0088888D02*
X0186445Y0088888D01*
X0186445Y0090486D02*
X0199745Y0090486D01*
X0199745Y0092085D02*
X0186445Y0092085D01*
X0186445Y0093683D02*
X0199745Y0093683D01*
X0199745Y0095282D02*
X0186445Y0095282D01*
X0186445Y0096880D02*
X0199745Y0096880D01*
X0199745Y0098479D02*
X0186445Y0098479D01*
X0186445Y0100077D02*
X0199745Y0100077D01*
X0199745Y0101676D02*
X0186445Y0101676D01*
X0186445Y0103274D02*
X0199745Y0103274D01*
X0199745Y0104873D02*
X0186445Y0104873D01*
X0186445Y0106471D02*
X0199745Y0106471D01*
X0199745Y0108070D02*
X0186445Y0108070D01*
X0186445Y0109668D02*
X0199745Y0109668D01*
X0199745Y0111267D02*
X0186445Y0111267D01*
X0186445Y0112865D02*
X0199745Y0112865D01*
X0199745Y0114464D02*
X0186445Y0114464D01*
X0186445Y0116062D02*
X0199745Y0116062D01*
X0199745Y0117661D02*
X0186445Y0117661D01*
X0186445Y0119259D02*
X0199745Y0119259D01*
X0199745Y0120858D02*
X0186445Y0120858D01*
X0186445Y0122456D02*
X0199745Y0122456D01*
X0199745Y0124055D02*
X0186445Y0124055D01*
X0186445Y0125654D02*
X0199745Y0125654D01*
X0199745Y0127252D02*
X0186445Y0127252D01*
X0186445Y0128851D02*
X0199745Y0128851D01*
X0199745Y0130449D02*
X0186445Y0130449D01*
X0186445Y0132048D02*
X0199745Y0132048D01*
X0199745Y0133646D02*
X0186445Y0133646D01*
X0186445Y0135245D02*
X0199745Y0135245D01*
X0199745Y0136843D02*
X0186445Y0136843D01*
X0186445Y0138442D02*
X0199745Y0138442D01*
X0199745Y0140040D02*
X0186445Y0140040D01*
X0186445Y0141639D02*
X0199745Y0141639D01*
X0199745Y0143237D02*
X0186445Y0143237D01*
X0186445Y0144836D02*
X0199745Y0144836D01*
X0199745Y0146434D02*
X0186445Y0146434D01*
X0186445Y0148033D02*
X0199745Y0148033D01*
X0199745Y0149631D02*
X0186445Y0149631D01*
X0186445Y0151230D02*
X0199745Y0151230D01*
X0199745Y0152828D02*
X0186445Y0152828D01*
X0186445Y0154427D02*
X0199745Y0154427D01*
X0199745Y0156025D02*
X0186445Y0156025D01*
X0186445Y0157624D02*
X0199745Y0157624D01*
X0199745Y0159222D02*
X0186445Y0159222D01*
X0186445Y0160821D02*
X0199745Y0160821D01*
X0199745Y0162419D02*
X0186445Y0162419D01*
X0187166Y0164018D02*
X0199745Y0164018D01*
X0199745Y0165616D02*
X0188765Y0165616D01*
X0190363Y0167215D02*
X0198757Y0167215D01*
X0198245Y0168813D02*
X0191962Y0168813D01*
X0192695Y0170412D02*
X0198464Y0170412D01*
X0199598Y0172010D02*
X0192695Y0172010D01*
X0192695Y0173609D02*
X0203495Y0173609D01*
X0203495Y0175207D02*
X0192695Y0175207D01*
X0192695Y0176806D02*
X0203495Y0176806D01*
X0203388Y0178404D02*
X0192695Y0178404D01*
X0192695Y0180003D02*
X0201789Y0180003D01*
X0200191Y0181601D02*
X0192380Y0181601D01*
X0190782Y0183200D02*
X0198592Y0183200D01*
X0196994Y0184798D02*
X0189183Y0184798D01*
X0187585Y0186397D02*
X0195395Y0186397D01*
X0193796Y0187995D02*
X0185986Y0187995D01*
X0184388Y0189594D02*
X0192198Y0189594D01*
X0190599Y0191192D02*
X0182789Y0191192D01*
X0181191Y0192791D02*
X0189001Y0192791D01*
X0187402Y0194390D02*
X0179592Y0194390D01*
X0177994Y0195988D02*
X0185804Y0195988D01*
X0182670Y0197587D02*
X0178520Y0197587D01*
X0179753Y0199185D02*
X0181437Y0199185D01*
X0180995Y0200784D02*
X0180195Y0200784D01*
X0180195Y0202382D02*
X0180995Y0202382D01*
X0180995Y0203981D02*
X0180195Y0203981D01*
X0180195Y0205579D02*
X0180995Y0205579D01*
X0180995Y0207178D02*
X0180195Y0207178D01*
X0179907Y0208776D02*
X0181283Y0208776D01*
X0171283Y0208776D02*
X0169907Y0208776D01*
X0170195Y0207178D02*
X0170995Y0207178D01*
X0170995Y0205579D02*
X0170195Y0205579D01*
X0170195Y0203981D02*
X0170995Y0203981D01*
X0170995Y0202382D02*
X0170195Y0202382D01*
X0170195Y0200784D02*
X0170995Y0200784D01*
X0171437Y0199185D02*
X0169753Y0199185D01*
X0168520Y0197587D02*
X0172670Y0197587D01*
X0176849Y0191192D02*
X0112639Y0191192D01*
X0114238Y0189594D02*
X0178448Y0189594D01*
X0180046Y0187995D02*
X0127536Y0187995D01*
X0129135Y0186397D02*
X0181645Y0186397D01*
X0183244Y0184798D02*
X0130733Y0184798D01*
X0127991Y0181601D02*
X0126824Y0181601D01*
X0126795Y0181672D02*
X0125501Y0182966D01*
X0123810Y0183667D01*
X0121980Y0183667D01*
X0120289Y0182966D01*
X0118995Y0181672D01*
X0118295Y0179982D01*
X0118295Y0172152D01*
X0118995Y0170461D01*
X0120289Y0169167D01*
X0121980Y0168467D01*
X0123810Y0168467D01*
X0125501Y0169167D01*
X0126795Y0170461D01*
X0127495Y0172152D01*
X0127495Y0179982D01*
X0126795Y0181672D01*
X0126392Y0183200D02*
X0124937Y0183200D01*
X0120853Y0183200D02*
X0114937Y0183200D01*
X0116824Y0181601D02*
X0118966Y0181601D01*
X0118304Y0180003D02*
X0117486Y0180003D01*
X0117495Y0178404D02*
X0118295Y0178404D01*
X0118295Y0176806D02*
X0117495Y0176806D01*
X0117495Y0175207D02*
X0118295Y0175207D01*
X0118295Y0173609D02*
X0117495Y0173609D01*
X0117437Y0172010D02*
X0118354Y0172010D01*
X0119045Y0170412D02*
X0116746Y0170412D01*
X0114647Y0168813D02*
X0121143Y0168813D01*
X0124647Y0168813D02*
X0131143Y0168813D01*
X0129045Y0170412D02*
X0126746Y0170412D01*
X0127437Y0172010D02*
X0128354Y0172010D01*
X0128295Y0173609D02*
X0127495Y0173609D01*
X0127495Y0175207D02*
X0128295Y0175207D01*
X0128295Y0176806D02*
X0127495Y0176806D01*
X0127495Y0178404D02*
X0128295Y0178404D01*
X0128304Y0180003D02*
X0127486Y0180003D01*
X0134937Y0183200D02*
X0140853Y0183200D01*
X0140289Y0182966D02*
X0138995Y0181672D01*
X0138295Y0179982D01*
X0138295Y0172152D01*
X0138995Y0170461D01*
X0140289Y0169167D01*
X0141980Y0168467D01*
X0143810Y0168467D01*
X0145501Y0169167D01*
X0146795Y0170461D01*
X0147495Y0172152D01*
X0147495Y0179982D01*
X0146795Y0181672D01*
X0145501Y0182966D01*
X0143810Y0183667D01*
X0141980Y0183667D01*
X0140289Y0182966D01*
X0138966Y0181601D02*
X0136824Y0181601D01*
X0137486Y0180003D02*
X0138304Y0180003D01*
X0138295Y0178404D02*
X0137495Y0178404D01*
X0137495Y0176806D02*
X0138295Y0176806D01*
X0138295Y0175207D02*
X0137495Y0175207D01*
X0137495Y0173609D02*
X0138295Y0173609D01*
X0138354Y0172010D02*
X0137437Y0172010D01*
X0136746Y0170412D02*
X0139045Y0170412D01*
X0141143Y0168813D02*
X0134647Y0168813D01*
X0144647Y0168813D02*
X0151143Y0168813D01*
X0149045Y0170412D02*
X0146746Y0170412D01*
X0147437Y0172010D02*
X0148354Y0172010D01*
X0148295Y0173609D02*
X0147495Y0173609D01*
X0147495Y0175207D02*
X0148295Y0175207D01*
X0148295Y0176806D02*
X0147495Y0176806D01*
X0147495Y0178404D02*
X0148295Y0178404D01*
X0148304Y0180003D02*
X0147486Y0180003D01*
X0146824Y0181601D02*
X0148966Y0181601D01*
X0150853Y0183200D02*
X0144937Y0183200D01*
X0154001Y0192791D02*
X0111041Y0192791D01*
X0109442Y0194390D02*
X0153495Y0194390D01*
X0153495Y0195988D02*
X0107844Y0195988D01*
X0106570Y0197587D02*
X0106245Y0197587D01*
X0105278Y0199185D02*
X0104647Y0199185D01*
X0104795Y0200784D02*
X0103995Y0200784D01*
X0103995Y0202382D02*
X0104795Y0202382D01*
X0104795Y0203981D02*
X0103995Y0203981D01*
X0103995Y0205579D02*
X0104795Y0205579D01*
X0104795Y0207178D02*
X0103995Y0207178D01*
X0103749Y0208776D02*
X0105041Y0208776D01*
X0113749Y0208776D02*
X0115041Y0208776D01*
X0114795Y0207178D02*
X0113995Y0207178D01*
X0113995Y0205579D02*
X0114795Y0205579D01*
X0114795Y0203981D02*
X0113995Y0203981D01*
X0113995Y0202382D02*
X0114795Y0202382D01*
X0114795Y0200784D02*
X0113995Y0200784D01*
X0113512Y0199185D02*
X0115278Y0199185D01*
X0116570Y0197587D02*
X0112220Y0197587D01*
X0122220Y0197587D02*
X0132670Y0197587D01*
X0131437Y0199185D02*
X0123512Y0199185D01*
X0123995Y0200784D02*
X0130995Y0200784D01*
X0130995Y0202382D02*
X0123995Y0202382D01*
X0123995Y0203981D02*
X0130995Y0203981D01*
X0130995Y0205579D02*
X0123995Y0205579D01*
X0123995Y0207178D02*
X0130995Y0207178D01*
X0131283Y0208776D02*
X0123749Y0208776D01*
X0138520Y0197587D02*
X0142670Y0197587D01*
X0141437Y0199185D02*
X0139753Y0199185D01*
X0140195Y0200784D02*
X0140995Y0200784D01*
X0140995Y0202382D02*
X0140195Y0202382D01*
X0140195Y0203981D02*
X0140995Y0203981D01*
X0140995Y0205579D02*
X0140195Y0205579D01*
X0140195Y0207178D02*
X0140995Y0207178D01*
X0141283Y0208776D02*
X0139907Y0208776D01*
X0149907Y0208776D02*
X0151283Y0208776D01*
X0150995Y0207178D02*
X0150195Y0207178D01*
X0150195Y0205579D02*
X0150995Y0205579D01*
X0150995Y0203981D02*
X0150195Y0203981D01*
X0150195Y0202382D02*
X0150995Y0202382D01*
X0150995Y0200784D02*
X0150195Y0200784D01*
X0149753Y0199185D02*
X0151437Y0199185D01*
X0152670Y0197587D02*
X0148520Y0197587D01*
X0158520Y0197587D02*
X0162670Y0197587D01*
X0161437Y0199185D02*
X0159753Y0199185D01*
X0160195Y0200784D02*
X0160995Y0200784D01*
X0160995Y0202382D02*
X0160195Y0202382D01*
X0160195Y0203981D02*
X0160995Y0203981D01*
X0160995Y0205579D02*
X0160195Y0205579D01*
X0160195Y0207178D02*
X0160995Y0207178D01*
X0161283Y0208776D02*
X0159907Y0208776D01*
X0174937Y0183200D02*
X0180853Y0183200D01*
X0178966Y0181601D02*
X0176824Y0181601D01*
X0177486Y0180003D02*
X0178304Y0180003D01*
X0178295Y0178404D02*
X0177495Y0178404D01*
X0177495Y0176806D02*
X0178295Y0176806D01*
X0178295Y0175207D02*
X0177495Y0175207D01*
X0177495Y0173609D02*
X0178295Y0173609D01*
X0178354Y0172010D02*
X0177437Y0172010D01*
X0177620Y0170412D02*
X0176746Y0170412D01*
X0176022Y0168813D02*
X0174647Y0168813D01*
X0174423Y0167215D02*
X0170363Y0167215D01*
X0168765Y0165616D02*
X0172825Y0165616D01*
X0171226Y0164018D02*
X0167166Y0164018D01*
X0165568Y0162419D02*
X0169628Y0162419D01*
X0168029Y0160821D02*
X0163969Y0160821D01*
X0162371Y0159222D02*
X0166431Y0159222D01*
X0164832Y0157624D02*
X0160772Y0157624D01*
X0159174Y0156025D02*
X0163234Y0156025D01*
X0161635Y0154427D02*
X0157575Y0154427D01*
X0155977Y0152828D02*
X0160037Y0152828D01*
X0158438Y0151230D02*
X0154378Y0151230D01*
X0152780Y0149631D02*
X0156840Y0149631D01*
X0155241Y0148033D02*
X0151181Y0148033D01*
X0149582Y0146434D02*
X0153643Y0146434D01*
X0152044Y0144836D02*
X0147984Y0144836D01*
X0146385Y0143237D02*
X0150446Y0143237D01*
X0148847Y0141639D02*
X0144787Y0141639D01*
X0143188Y0140040D02*
X0147249Y0140040D01*
X0145650Y0138442D02*
X0141590Y0138442D01*
X0139991Y0136843D02*
X0144052Y0136843D01*
X0142453Y0135245D02*
X0138393Y0135245D01*
X0136794Y0133646D02*
X0140855Y0133646D01*
X0139256Y0132048D02*
X0135196Y0132048D01*
X0133597Y0130449D02*
X0137658Y0130449D01*
X0136059Y0128851D02*
X0131999Y0128851D01*
X0130400Y0127252D02*
X0134461Y0127252D01*
X0132862Y0125654D02*
X0128802Y0125654D01*
X0127203Y0124055D02*
X0131264Y0124055D01*
X0129665Y0122456D02*
X0125605Y0122456D01*
X0124006Y0120858D02*
X0128067Y0120858D01*
X0126468Y0119259D02*
X0122408Y0119259D01*
X0120809Y0117661D02*
X0124870Y0117661D01*
X0123271Y0116062D02*
X0119211Y0116062D01*
X0117612Y0114464D02*
X0121673Y0114464D01*
X0120074Y0112865D02*
X0116014Y0112865D01*
X0114415Y0111267D02*
X0118476Y0111267D01*
X0116877Y0109668D02*
X0112817Y0109668D01*
X0112695Y0108070D02*
X0115279Y0108070D01*
X0113680Y0106471D02*
X0112695Y0106471D01*
X0116423Y0103274D02*
X0117646Y0103274D01*
X0115195Y0101676D02*
X0121366Y0101676D01*
X0122965Y0100077D02*
X0115195Y0100077D01*
X0115195Y0098479D02*
X0124563Y0098479D01*
X0126162Y0096880D02*
X0115195Y0096880D01*
X0115195Y0095282D02*
X0127760Y0095282D01*
X0129359Y0093683D02*
X0115195Y0093683D01*
X0115195Y0092085D02*
X0130957Y0092085D01*
X0132556Y0090486D02*
X0115195Y0090486D01*
X0115195Y0088888D02*
X0134154Y0088888D01*
X0135753Y0087289D02*
X0115195Y0087289D01*
X0115195Y0085691D02*
X0119497Y0085691D01*
X0119680Y0085767D02*
X0117989Y0085066D01*
X0116695Y0083772D01*
X0115995Y0082082D01*
X0115995Y0080252D01*
X0116695Y0078561D01*
X0117989Y0077267D01*
X0119680Y0076567D01*
X0127510Y0076567D01*
X0129201Y0077267D01*
X0130495Y0078561D01*
X0131195Y0080252D01*
X0131195Y0082082D01*
X0130495Y0083772D01*
X0129201Y0085066D01*
X0127510Y0085767D01*
X0119680Y0085767D01*
X0117015Y0084092D02*
X0115195Y0084092D01*
X0115195Y0082494D02*
X0116166Y0082494D01*
X0115995Y0080895D02*
X0115195Y0080895D01*
X0115195Y0079297D02*
X0116391Y0079297D01*
X0117558Y0077698D02*
X0115195Y0077698D01*
X0115195Y0076100D02*
X0160450Y0076100D01*
X0160134Y0082494D02*
X0152024Y0082494D01*
X0151175Y0084092D02*
X0160134Y0084092D01*
X0160254Y0085691D02*
X0148693Y0085691D01*
X0143495Y0087289D02*
X0141692Y0087289D01*
X0140094Y0088888D02*
X0143495Y0088888D01*
X0143945Y0090486D02*
X0138495Y0090486D01*
X0136897Y0092085D02*
X0182245Y0092085D01*
X0182245Y0093683D02*
X0135298Y0093683D01*
X0133700Y0095282D02*
X0182245Y0095282D01*
X0182245Y0096880D02*
X0132101Y0096880D01*
X0130503Y0098479D02*
X0182245Y0098479D01*
X0182245Y0100077D02*
X0128904Y0100077D01*
X0127306Y0101676D02*
X0182245Y0101676D01*
X0182245Y0103274D02*
X0125707Y0103274D01*
X0124195Y0104873D02*
X0182245Y0104873D01*
X0182245Y0106471D02*
X0124055Y0106471D01*
X0123033Y0108070D02*
X0182245Y0108070D01*
X0182245Y0109668D02*
X0122817Y0109668D01*
X0124415Y0111267D02*
X0182245Y0111267D01*
X0182245Y0112865D02*
X0126014Y0112865D01*
X0127612Y0114464D02*
X0182245Y0114464D01*
X0182245Y0116062D02*
X0129211Y0116062D01*
X0130809Y0117661D02*
X0182245Y0117661D01*
X0182245Y0119259D02*
X0132408Y0119259D01*
X0134006Y0120858D02*
X0182245Y0120858D01*
X0182245Y0122456D02*
X0135605Y0122456D01*
X0137203Y0124055D02*
X0182245Y0124055D01*
X0182245Y0125654D02*
X0138802Y0125654D01*
X0140400Y0127252D02*
X0182245Y0127252D01*
X0182245Y0128851D02*
X0141999Y0128851D01*
X0143597Y0130449D02*
X0182245Y0130449D01*
X0182245Y0132048D02*
X0145196Y0132048D01*
X0146794Y0133646D02*
X0182245Y0133646D01*
X0182245Y0135245D02*
X0148393Y0135245D01*
X0149991Y0136843D02*
X0182245Y0136843D01*
X0182245Y0138442D02*
X0151590Y0138442D01*
X0153188Y0140040D02*
X0182245Y0140040D01*
X0182245Y0141639D02*
X0154787Y0141639D01*
X0156385Y0143237D02*
X0182245Y0143237D01*
X0182245Y0144836D02*
X0157984Y0144836D01*
X0159582Y0146434D02*
X0182245Y0146434D01*
X0182245Y0148033D02*
X0161181Y0148033D01*
X0162780Y0149631D02*
X0182245Y0149631D01*
X0182245Y0151230D02*
X0164378Y0151230D01*
X0165977Y0152828D02*
X0182245Y0152828D01*
X0182245Y0154427D02*
X0167575Y0154427D01*
X0169174Y0156025D02*
X0182245Y0156025D01*
X0182245Y0157624D02*
X0170772Y0157624D01*
X0172371Y0159222D02*
X0182245Y0159222D01*
X0182245Y0160821D02*
X0173969Y0160821D01*
X0175568Y0162419D02*
X0182245Y0162419D01*
X0182245Y0164018D02*
X0177166Y0164018D01*
X0178765Y0165616D02*
X0182825Y0165616D01*
X0184423Y0167215D02*
X0180363Y0167215D01*
X0184647Y0168813D02*
X0186022Y0168813D01*
X0186746Y0170412D02*
X0187620Y0170412D01*
X0187437Y0172010D02*
X0188495Y0172010D01*
X0188495Y0173609D02*
X0187495Y0173609D01*
X0187495Y0175207D02*
X0188495Y0175207D01*
X0188495Y0176806D02*
X0187495Y0176806D01*
X0187495Y0178404D02*
X0188495Y0178404D01*
X0188039Y0180003D02*
X0187486Y0180003D01*
X0096570Y0197587D02*
X0092220Y0197587D01*
X0093512Y0199185D02*
X0095278Y0199185D01*
X0094795Y0200784D02*
X0093995Y0200784D01*
X0093995Y0202382D02*
X0094795Y0202382D01*
X0094795Y0203981D02*
X0093995Y0203981D01*
X0093995Y0205579D02*
X0094795Y0205579D01*
X0094795Y0207178D02*
X0093995Y0207178D01*
X0093749Y0208776D02*
X0095041Y0208776D01*
X0085041Y0208776D02*
X0083749Y0208776D01*
X0083995Y0207178D02*
X0084795Y0207178D01*
X0084795Y0205579D02*
X0083995Y0205579D01*
X0083995Y0203981D02*
X0084795Y0203981D01*
X0084795Y0202382D02*
X0083995Y0202382D01*
X0083995Y0200784D02*
X0084795Y0200784D01*
X0085278Y0199185D02*
X0083512Y0199185D01*
X0082220Y0197587D02*
X0086570Y0197587D01*
X0076570Y0197587D02*
X0072220Y0197587D01*
X0073512Y0199185D02*
X0075278Y0199185D01*
X0074795Y0200784D02*
X0073995Y0200784D01*
X0073995Y0202382D02*
X0074795Y0202382D01*
X0074795Y0203981D02*
X0073995Y0203981D01*
X0073995Y0205579D02*
X0074795Y0205579D01*
X0074795Y0207178D02*
X0073995Y0207178D01*
X0073749Y0208776D02*
X0075041Y0208776D01*
X0172245Y0090486D02*
X0182245Y0090486D01*
X0182245Y0088888D02*
X0173844Y0088888D01*
X0188945Y0074501D02*
X0209745Y0074501D01*
X0209745Y0076100D02*
X0206789Y0076100D01*
X0207357Y0077698D02*
X0209745Y0077698D01*
X0209745Y0079297D02*
X0207357Y0079297D01*
X0207357Y0080895D02*
X0209745Y0080895D01*
X0209745Y0082494D02*
X0207357Y0082494D01*
X0207357Y0084092D02*
X0209745Y0084092D01*
X0208601Y0085691D02*
X0207357Y0085691D01*
X0207003Y0087289D02*
X0203945Y0087289D01*
X0203945Y0088888D02*
X0205404Y0088888D01*
X0197857Y0085691D02*
X0196333Y0085691D01*
X0196333Y0084092D02*
X0197857Y0084092D01*
X0197857Y0082494D02*
X0196333Y0082494D01*
X0196333Y0080895D02*
X0197857Y0080895D01*
X0197857Y0079297D02*
X0196333Y0079297D01*
X0196333Y0077698D02*
X0197857Y0077698D01*
X0198425Y0076100D02*
X0195766Y0076100D01*
X0188945Y0072903D02*
X0208861Y0072903D01*
X0207263Y0071304D02*
X0188945Y0071304D01*
X0187854Y0069706D02*
X0205664Y0069706D01*
X0208407Y0066509D02*
X0211795Y0066509D01*
X0211795Y0068107D02*
X0210005Y0068107D01*
X0211604Y0069706D02*
X0211795Y0069706D01*
X0211795Y0064910D02*
X0206808Y0064910D01*
X0206757Y0063312D02*
X0211795Y0063312D01*
X0211795Y0061713D02*
X0206757Y0061713D01*
X0206757Y0060115D02*
X0211795Y0060115D01*
X0211795Y0058516D02*
X0206006Y0058516D01*
X0198008Y0058516D02*
X0194982Y0058516D01*
X0195733Y0060115D02*
X0197257Y0060115D01*
X0197257Y0061713D02*
X0195733Y0061713D01*
X0195733Y0063312D02*
X0197257Y0063312D01*
X0197257Y0064910D02*
X0195733Y0064910D01*
X0195733Y0066509D02*
X0197257Y0066509D01*
X0197257Y0068107D02*
X0195733Y0068107D01*
X0195097Y0050523D02*
X0202093Y0050523D01*
X0199848Y0048925D02*
X0197342Y0048925D01*
X0198094Y0047326D02*
X0199097Y0047326D01*
X0198995Y0045728D02*
X0198195Y0045728D01*
X0198195Y0044129D02*
X0198995Y0044129D01*
X0198995Y0042531D02*
X0198195Y0042531D01*
X0198195Y0040932D02*
X0198995Y0040932D01*
X0198995Y0039334D02*
X0198195Y0039334D01*
X0197567Y0037735D02*
X0199623Y0037735D01*
X0201303Y0036137D02*
X0197695Y0036137D01*
X0197695Y0034538D02*
X0203495Y0034538D01*
X0203495Y0032940D02*
X0197695Y0032940D01*
X0197695Y0031341D02*
X0203495Y0031341D01*
X0203495Y0029743D02*
X0197695Y0029743D01*
X0197695Y0028144D02*
X0203495Y0028144D01*
X0203495Y0026546D02*
X0197695Y0026546D01*
X0197695Y0024947D02*
X0203495Y0024947D01*
X0203495Y0023349D02*
X0197695Y0023349D01*
X0197695Y0021750D02*
X0203495Y0021750D01*
X0202075Y0020152D02*
X0199115Y0020152D01*
X0200000Y0018553D02*
X0201190Y0018553D01*
X0200995Y0016955D02*
X0200195Y0016955D01*
X0200195Y0015356D02*
X0200995Y0015356D01*
X0200995Y0013758D02*
X0200195Y0013758D01*
X0200195Y0012159D02*
X0200995Y0012159D01*
X0200995Y0010561D02*
X0200195Y0010561D01*
X0210195Y0010561D02*
X0211795Y0010561D01*
X0211795Y0012159D02*
X0210195Y0012159D01*
X0210195Y0013758D02*
X0211795Y0013758D01*
X0211795Y0015356D02*
X0210195Y0015356D01*
X0210195Y0016955D02*
X0211795Y0016955D01*
X0211795Y0018553D02*
X0210000Y0018553D01*
X0209115Y0020152D02*
X0211795Y0020152D01*
X0211795Y0021750D02*
X0207695Y0021750D01*
X0207695Y0023349D02*
X0211795Y0023349D01*
X0211795Y0024947D02*
X0207695Y0024947D01*
X0207695Y0026546D02*
X0211795Y0026546D01*
X0211795Y0028144D02*
X0207695Y0028144D01*
X0207695Y0029743D02*
X0211795Y0029743D01*
X0211795Y0031341D02*
X0207695Y0031341D01*
X0207695Y0032940D02*
X0211795Y0032940D01*
X0211795Y0034538D02*
X0207695Y0034538D01*
X0207695Y0036137D02*
X0211795Y0036137D01*
X0211795Y0037735D02*
X0207567Y0037735D01*
X0208195Y0039334D02*
X0211795Y0039334D01*
X0211795Y0040932D02*
X0208195Y0040932D01*
X0208195Y0042531D02*
X0211795Y0042531D01*
X0211795Y0044129D02*
X0208195Y0044129D01*
X0208195Y0045728D02*
X0211795Y0045728D01*
X0211795Y0047326D02*
X0208094Y0047326D01*
X0207342Y0048925D02*
X0211795Y0048925D01*
X0211795Y0050523D02*
X0205097Y0050523D01*
X0172093Y0050523D02*
X0165617Y0050523D01*
X0165438Y0050615D02*
X0164719Y0050848D01*
X0163973Y0050967D01*
X0163795Y0050967D01*
X0163795Y0043367D01*
X0163395Y0043367D01*
X0163395Y0050967D01*
X0163217Y0050967D01*
X0162471Y0050848D01*
X0161753Y0050615D01*
X0161079Y0050272D01*
X0160468Y0049828D01*
X0159934Y0049294D01*
X0159490Y0048682D01*
X0159147Y0048009D01*
X0158913Y0047291D01*
X0158795Y0046544D01*
X0158795Y0043367D01*
X0163395Y0043367D01*
X0163395Y0042967D01*
X0158795Y0042967D01*
X0158795Y0039789D01*
X0158913Y0039043D01*
X0159147Y0038324D01*
X0159490Y0037651D01*
X0159934Y0037040D01*
X0160468Y0036505D01*
X0161079Y0036061D01*
X0161753Y0035718D01*
X0162471Y0035485D01*
X0163217Y0035367D01*
X0163395Y0035367D01*
X0163395Y0042967D01*
X0163795Y0042967D01*
X0163795Y0043367D01*
X0168395Y0043367D01*
X0168395Y0046544D01*
X0168277Y0047291D01*
X0168043Y0048009D01*
X0167700Y0048682D01*
X0167256Y0049294D01*
X0166722Y0049828D01*
X0166111Y0050272D01*
X0165438Y0050615D01*
X0163795Y0050523D02*
X0163395Y0050523D01*
X0163395Y0048925D02*
X0163795Y0048925D01*
X0163795Y0047326D02*
X0163395Y0047326D01*
X0163395Y0045728D02*
X0163795Y0045728D01*
X0163795Y0044129D02*
X0163395Y0044129D01*
X0163795Y0042967D02*
X0168395Y0042967D01*
X0168395Y0039789D01*
X0168277Y0039043D01*
X0168043Y0038324D01*
X0167700Y0037651D01*
X0167256Y0037040D01*
X0166722Y0036505D01*
X0166111Y0036061D01*
X0165438Y0035718D01*
X0164719Y0035485D01*
X0163973Y0035367D01*
X0163795Y0035367D01*
X0163795Y0042967D01*
X0163795Y0042531D02*
X0163395Y0042531D01*
X0163395Y0040932D02*
X0163795Y0040932D01*
X0163795Y0039334D02*
X0163395Y0039334D01*
X0163395Y0037735D02*
X0163795Y0037735D01*
X0163795Y0036137D02*
X0163395Y0036137D01*
X0160975Y0036137D02*
X0134887Y0036137D01*
X0136567Y0037735D02*
X0159447Y0037735D01*
X0158867Y0039334D02*
X0137195Y0039334D01*
X0137195Y0040932D02*
X0158795Y0040932D01*
X0158795Y0042531D02*
X0137195Y0042531D01*
X0137195Y0044129D02*
X0158795Y0044129D01*
X0158795Y0045728D02*
X0137195Y0045728D01*
X0137094Y0047326D02*
X0158925Y0047326D01*
X0159666Y0048925D02*
X0136445Y0048925D01*
X0136445Y0050523D02*
X0161573Y0050523D01*
X0167524Y0048925D02*
X0169848Y0048925D01*
X0169097Y0047326D02*
X0168265Y0047326D01*
X0168395Y0045728D02*
X0168995Y0045728D01*
X0168995Y0044129D02*
X0168395Y0044129D01*
X0168395Y0042531D02*
X0168995Y0042531D01*
X0168995Y0040932D02*
X0168395Y0040932D01*
X0168323Y0039334D02*
X0168995Y0039334D01*
X0169623Y0037735D02*
X0167744Y0037735D01*
X0166215Y0036137D02*
X0171303Y0036137D01*
X0170557Y0060115D02*
X0169033Y0060115D01*
X0169033Y0061713D02*
X0170557Y0061713D01*
X0170557Y0063312D02*
X0169033Y0063312D01*
X0169033Y0064910D02*
X0170557Y0064910D01*
X0170557Y0066509D02*
X0169033Y0066509D01*
X0169033Y0068107D02*
X0170557Y0068107D01*
X0159534Y0060115D02*
X0106445Y0060115D01*
X0106445Y0058516D02*
X0113225Y0058516D01*
X0112245Y0056918D02*
X0106445Y0056918D01*
X0106445Y0055319D02*
X0112245Y0055319D01*
X0112245Y0053721D02*
X0106445Y0053721D01*
X0106445Y0052122D02*
X0112245Y0052122D01*
X0111093Y0050523D02*
X0106445Y0050523D01*
X0106445Y0048925D02*
X0108848Y0048925D01*
X0108097Y0047326D02*
X0107094Y0047326D01*
X0107195Y0045728D02*
X0107995Y0045728D01*
X0107995Y0044129D02*
X0107195Y0044129D01*
X0107195Y0042531D02*
X0107995Y0042531D01*
X0107995Y0040932D02*
X0107195Y0040932D01*
X0107195Y0039334D02*
X0107995Y0039334D01*
X0108623Y0037735D02*
X0106567Y0037735D01*
X0104887Y0036137D02*
X0110303Y0036137D01*
X0114887Y0036137D02*
X0119975Y0036137D01*
X0120079Y0036061D02*
X0120753Y0035718D01*
X0121471Y0035485D01*
X0122217Y0035367D01*
X0122395Y0035367D01*
X0122395Y0042967D01*
X0117795Y0042967D01*
X0117795Y0039789D01*
X0117913Y0039043D01*
X0118147Y0038324D01*
X0118490Y0037651D01*
X0118934Y0037040D01*
X0119468Y0036505D01*
X0120079Y0036061D01*
X0122395Y0036137D02*
X0122795Y0036137D01*
X0122795Y0035367D02*
X0122973Y0035367D01*
X0123719Y0035485D01*
X0124438Y0035718D01*
X0125111Y0036061D01*
X0125722Y0036505D01*
X0126256Y0037040D01*
X0126700Y0037651D01*
X0127043Y0038324D01*
X0127277Y0039043D01*
X0127395Y0039789D01*
X0127395Y0042967D01*
X0122795Y0042967D01*
X0122795Y0043367D01*
X0122395Y0043367D01*
X0122395Y0050967D01*
X0122217Y0050967D01*
X0121471Y0050848D01*
X0120753Y0050615D01*
X0120079Y0050272D01*
X0119468Y0049828D01*
X0118934Y0049294D01*
X0118490Y0048682D01*
X0118147Y0048009D01*
X0117913Y0047291D01*
X0117795Y0046544D01*
X0117795Y0043367D01*
X0122395Y0043367D01*
X0122395Y0042967D01*
X0122795Y0042967D01*
X0122795Y0035367D01*
X0122795Y0037735D02*
X0122395Y0037735D01*
X0122395Y0039334D02*
X0122795Y0039334D01*
X0122795Y0040932D02*
X0122395Y0040932D01*
X0122395Y0042531D02*
X0122795Y0042531D01*
X0122795Y0043367D02*
X0127395Y0043367D01*
X0127395Y0046544D01*
X0127277Y0047291D01*
X0127043Y0048009D01*
X0126700Y0048682D01*
X0126256Y0049294D01*
X0125722Y0049828D01*
X0125111Y0050272D01*
X0124438Y0050615D01*
X0123719Y0050848D01*
X0122973Y0050967D01*
X0122795Y0050967D01*
X0122795Y0043367D01*
X0122795Y0044129D02*
X0122395Y0044129D01*
X0122395Y0045728D02*
X0122795Y0045728D01*
X0122795Y0047326D02*
X0122395Y0047326D01*
X0122395Y0048925D02*
X0122795Y0048925D01*
X0122795Y0050523D02*
X0122395Y0050523D01*
X0120573Y0050523D02*
X0116445Y0050523D01*
X0116445Y0048925D02*
X0118666Y0048925D01*
X0117925Y0047326D02*
X0117094Y0047326D01*
X0117195Y0045728D02*
X0117795Y0045728D01*
X0117795Y0044129D02*
X0117195Y0044129D01*
X0117195Y0042531D02*
X0117795Y0042531D01*
X0117795Y0040932D02*
X0117195Y0040932D01*
X0117195Y0039334D02*
X0117867Y0039334D01*
X0118447Y0037735D02*
X0116567Y0037735D01*
X0125215Y0036137D02*
X0130303Y0036137D01*
X0128623Y0037735D02*
X0126744Y0037735D01*
X0127323Y0039334D02*
X0127995Y0039334D01*
X0127995Y0040932D02*
X0127395Y0040932D01*
X0127395Y0042531D02*
X0127995Y0042531D01*
X0127995Y0044129D02*
X0127395Y0044129D01*
X0127395Y0045728D02*
X0127995Y0045728D01*
X0128097Y0047326D02*
X0127265Y0047326D01*
X0126524Y0048925D02*
X0128848Y0048925D01*
X0131093Y0050523D02*
X0124617Y0050523D01*
X0132245Y0052122D02*
X0116445Y0052122D01*
X0116445Y0053721D02*
X0132245Y0053721D01*
X0127510Y0066567D02*
X0119680Y0066567D01*
X0117989Y0067267D01*
X0116695Y0068561D01*
X0115995Y0070252D01*
X0115995Y0072082D01*
X0116695Y0073772D01*
X0117989Y0075066D01*
X0119680Y0075767D01*
X0127510Y0075767D01*
X0129201Y0075066D01*
X0130495Y0073772D01*
X0131195Y0072082D01*
X0131195Y0070252D01*
X0130495Y0068561D01*
X0129201Y0067267D01*
X0127510Y0066567D01*
X0130041Y0068107D02*
X0138149Y0068107D01*
X0137221Y0069706D02*
X0130969Y0069706D01*
X0131195Y0071304D02*
X0136995Y0071304D01*
X0137335Y0072903D02*
X0130855Y0072903D01*
X0129766Y0074501D02*
X0138424Y0074501D01*
X0138558Y0077698D02*
X0129632Y0077698D01*
X0130800Y0079297D02*
X0137391Y0079297D01*
X0136995Y0080895D02*
X0131195Y0080895D01*
X0131024Y0082494D02*
X0137166Y0082494D01*
X0138015Y0084092D02*
X0130175Y0084092D01*
X0127693Y0085691D02*
X0137351Y0085691D01*
X0117424Y0074501D02*
X0115195Y0074501D01*
X0115195Y0072903D02*
X0116335Y0072903D01*
X0115995Y0071304D02*
X0115195Y0071304D01*
X0116221Y0069706D02*
X0114104Y0069706D01*
X0117149Y0068107D02*
X0109041Y0068107D01*
X0108766Y0074501D02*
X0110995Y0074501D01*
X0112075Y0020152D02*
X0109115Y0020152D01*
M02*
