G75*
%MOIN*%
%OFA0B0*%
%FSLAX25Y25*%
%IPPOS*%
%LPD*%
%AMOC8*
5,1,8,0,0,1.08239X$1,22.5*
%
%ADD10C,0.00000*%
%ADD11C,0.01600*%
%ADD12C,0.00600*%
D10*
X0001800Y0001800D02*
X0001800Y0064060D01*
X0044595Y0064060D01*
X0044595Y0001800D01*
X0001800Y0001800D01*
X0007312Y0013611D02*
X0007314Y0013769D01*
X0007320Y0013927D01*
X0007330Y0014085D01*
X0007344Y0014243D01*
X0007362Y0014400D01*
X0007383Y0014557D01*
X0007409Y0014713D01*
X0007439Y0014869D01*
X0007472Y0015024D01*
X0007510Y0015177D01*
X0007551Y0015330D01*
X0007596Y0015482D01*
X0007645Y0015633D01*
X0007698Y0015782D01*
X0007754Y0015930D01*
X0007814Y0016076D01*
X0007878Y0016221D01*
X0007946Y0016364D01*
X0008017Y0016506D01*
X0008091Y0016646D01*
X0008169Y0016783D01*
X0008251Y0016919D01*
X0008335Y0017053D01*
X0008424Y0017184D01*
X0008515Y0017313D01*
X0008610Y0017440D01*
X0008707Y0017565D01*
X0008808Y0017687D01*
X0008912Y0017806D01*
X0009019Y0017923D01*
X0009129Y0018037D01*
X0009242Y0018148D01*
X0009357Y0018257D01*
X0009475Y0018362D01*
X0009596Y0018464D01*
X0009719Y0018564D01*
X0009845Y0018660D01*
X0009973Y0018753D01*
X0010103Y0018843D01*
X0010236Y0018929D01*
X0010371Y0019013D01*
X0010507Y0019092D01*
X0010646Y0019169D01*
X0010787Y0019241D01*
X0010929Y0019311D01*
X0011073Y0019376D01*
X0011219Y0019438D01*
X0011366Y0019496D01*
X0011515Y0019551D01*
X0011665Y0019602D01*
X0011816Y0019649D01*
X0011968Y0019692D01*
X0012121Y0019731D01*
X0012276Y0019767D01*
X0012431Y0019798D01*
X0012587Y0019826D01*
X0012743Y0019850D01*
X0012900Y0019870D01*
X0013058Y0019886D01*
X0013215Y0019898D01*
X0013374Y0019906D01*
X0013532Y0019910D01*
X0013690Y0019910D01*
X0013848Y0019906D01*
X0014007Y0019898D01*
X0014164Y0019886D01*
X0014322Y0019870D01*
X0014479Y0019850D01*
X0014635Y0019826D01*
X0014791Y0019798D01*
X0014946Y0019767D01*
X0015101Y0019731D01*
X0015254Y0019692D01*
X0015406Y0019649D01*
X0015557Y0019602D01*
X0015707Y0019551D01*
X0015856Y0019496D01*
X0016003Y0019438D01*
X0016149Y0019376D01*
X0016293Y0019311D01*
X0016435Y0019241D01*
X0016576Y0019169D01*
X0016715Y0019092D01*
X0016851Y0019013D01*
X0016986Y0018929D01*
X0017119Y0018843D01*
X0017249Y0018753D01*
X0017377Y0018660D01*
X0017503Y0018564D01*
X0017626Y0018464D01*
X0017747Y0018362D01*
X0017865Y0018257D01*
X0017980Y0018148D01*
X0018093Y0018037D01*
X0018203Y0017923D01*
X0018310Y0017806D01*
X0018414Y0017687D01*
X0018515Y0017565D01*
X0018612Y0017440D01*
X0018707Y0017313D01*
X0018798Y0017184D01*
X0018887Y0017053D01*
X0018971Y0016919D01*
X0019053Y0016783D01*
X0019131Y0016646D01*
X0019205Y0016506D01*
X0019276Y0016364D01*
X0019344Y0016221D01*
X0019408Y0016076D01*
X0019468Y0015930D01*
X0019524Y0015782D01*
X0019577Y0015633D01*
X0019626Y0015482D01*
X0019671Y0015330D01*
X0019712Y0015177D01*
X0019750Y0015024D01*
X0019783Y0014869D01*
X0019813Y0014713D01*
X0019839Y0014557D01*
X0019860Y0014400D01*
X0019878Y0014243D01*
X0019892Y0014085D01*
X0019902Y0013927D01*
X0019908Y0013769D01*
X0019910Y0013611D01*
X0019908Y0013453D01*
X0019902Y0013295D01*
X0019892Y0013137D01*
X0019878Y0012979D01*
X0019860Y0012822D01*
X0019839Y0012665D01*
X0019813Y0012509D01*
X0019783Y0012353D01*
X0019750Y0012198D01*
X0019712Y0012045D01*
X0019671Y0011892D01*
X0019626Y0011740D01*
X0019577Y0011589D01*
X0019524Y0011440D01*
X0019468Y0011292D01*
X0019408Y0011146D01*
X0019344Y0011001D01*
X0019276Y0010858D01*
X0019205Y0010716D01*
X0019131Y0010576D01*
X0019053Y0010439D01*
X0018971Y0010303D01*
X0018887Y0010169D01*
X0018798Y0010038D01*
X0018707Y0009909D01*
X0018612Y0009782D01*
X0018515Y0009657D01*
X0018414Y0009535D01*
X0018310Y0009416D01*
X0018203Y0009299D01*
X0018093Y0009185D01*
X0017980Y0009074D01*
X0017865Y0008965D01*
X0017747Y0008860D01*
X0017626Y0008758D01*
X0017503Y0008658D01*
X0017377Y0008562D01*
X0017249Y0008469D01*
X0017119Y0008379D01*
X0016986Y0008293D01*
X0016851Y0008209D01*
X0016715Y0008130D01*
X0016576Y0008053D01*
X0016435Y0007981D01*
X0016293Y0007911D01*
X0016149Y0007846D01*
X0016003Y0007784D01*
X0015856Y0007726D01*
X0015707Y0007671D01*
X0015557Y0007620D01*
X0015406Y0007573D01*
X0015254Y0007530D01*
X0015101Y0007491D01*
X0014946Y0007455D01*
X0014791Y0007424D01*
X0014635Y0007396D01*
X0014479Y0007372D01*
X0014322Y0007352D01*
X0014164Y0007336D01*
X0014007Y0007324D01*
X0013848Y0007316D01*
X0013690Y0007312D01*
X0013532Y0007312D01*
X0013374Y0007316D01*
X0013215Y0007324D01*
X0013058Y0007336D01*
X0012900Y0007352D01*
X0012743Y0007372D01*
X0012587Y0007396D01*
X0012431Y0007424D01*
X0012276Y0007455D01*
X0012121Y0007491D01*
X0011968Y0007530D01*
X0011816Y0007573D01*
X0011665Y0007620D01*
X0011515Y0007671D01*
X0011366Y0007726D01*
X0011219Y0007784D01*
X0011073Y0007846D01*
X0010929Y0007911D01*
X0010787Y0007981D01*
X0010646Y0008053D01*
X0010507Y0008130D01*
X0010371Y0008209D01*
X0010236Y0008293D01*
X0010103Y0008379D01*
X0009973Y0008469D01*
X0009845Y0008562D01*
X0009719Y0008658D01*
X0009596Y0008758D01*
X0009475Y0008860D01*
X0009357Y0008965D01*
X0009242Y0009074D01*
X0009129Y0009185D01*
X0009019Y0009299D01*
X0008912Y0009416D01*
X0008808Y0009535D01*
X0008707Y0009657D01*
X0008610Y0009782D01*
X0008515Y0009909D01*
X0008424Y0010038D01*
X0008335Y0010169D01*
X0008251Y0010303D01*
X0008169Y0010439D01*
X0008091Y0010576D01*
X0008017Y0010716D01*
X0007946Y0010858D01*
X0007878Y0011001D01*
X0007814Y0011146D01*
X0007754Y0011292D01*
X0007698Y0011440D01*
X0007645Y0011589D01*
X0007596Y0011740D01*
X0007551Y0011892D01*
X0007510Y0012045D01*
X0007472Y0012198D01*
X0007439Y0012353D01*
X0007409Y0012509D01*
X0007383Y0012665D01*
X0007362Y0012822D01*
X0007344Y0012979D01*
X0007330Y0013137D01*
X0007320Y0013295D01*
X0007314Y0013453D01*
X0007312Y0013611D01*
X0007312Y0052981D02*
X0007314Y0053139D01*
X0007320Y0053297D01*
X0007330Y0053455D01*
X0007344Y0053613D01*
X0007362Y0053770D01*
X0007383Y0053927D01*
X0007409Y0054083D01*
X0007439Y0054239D01*
X0007472Y0054394D01*
X0007510Y0054547D01*
X0007551Y0054700D01*
X0007596Y0054852D01*
X0007645Y0055003D01*
X0007698Y0055152D01*
X0007754Y0055300D01*
X0007814Y0055446D01*
X0007878Y0055591D01*
X0007946Y0055734D01*
X0008017Y0055876D01*
X0008091Y0056016D01*
X0008169Y0056153D01*
X0008251Y0056289D01*
X0008335Y0056423D01*
X0008424Y0056554D01*
X0008515Y0056683D01*
X0008610Y0056810D01*
X0008707Y0056935D01*
X0008808Y0057057D01*
X0008912Y0057176D01*
X0009019Y0057293D01*
X0009129Y0057407D01*
X0009242Y0057518D01*
X0009357Y0057627D01*
X0009475Y0057732D01*
X0009596Y0057834D01*
X0009719Y0057934D01*
X0009845Y0058030D01*
X0009973Y0058123D01*
X0010103Y0058213D01*
X0010236Y0058299D01*
X0010371Y0058383D01*
X0010507Y0058462D01*
X0010646Y0058539D01*
X0010787Y0058611D01*
X0010929Y0058681D01*
X0011073Y0058746D01*
X0011219Y0058808D01*
X0011366Y0058866D01*
X0011515Y0058921D01*
X0011665Y0058972D01*
X0011816Y0059019D01*
X0011968Y0059062D01*
X0012121Y0059101D01*
X0012276Y0059137D01*
X0012431Y0059168D01*
X0012587Y0059196D01*
X0012743Y0059220D01*
X0012900Y0059240D01*
X0013058Y0059256D01*
X0013215Y0059268D01*
X0013374Y0059276D01*
X0013532Y0059280D01*
X0013690Y0059280D01*
X0013848Y0059276D01*
X0014007Y0059268D01*
X0014164Y0059256D01*
X0014322Y0059240D01*
X0014479Y0059220D01*
X0014635Y0059196D01*
X0014791Y0059168D01*
X0014946Y0059137D01*
X0015101Y0059101D01*
X0015254Y0059062D01*
X0015406Y0059019D01*
X0015557Y0058972D01*
X0015707Y0058921D01*
X0015856Y0058866D01*
X0016003Y0058808D01*
X0016149Y0058746D01*
X0016293Y0058681D01*
X0016435Y0058611D01*
X0016576Y0058539D01*
X0016715Y0058462D01*
X0016851Y0058383D01*
X0016986Y0058299D01*
X0017119Y0058213D01*
X0017249Y0058123D01*
X0017377Y0058030D01*
X0017503Y0057934D01*
X0017626Y0057834D01*
X0017747Y0057732D01*
X0017865Y0057627D01*
X0017980Y0057518D01*
X0018093Y0057407D01*
X0018203Y0057293D01*
X0018310Y0057176D01*
X0018414Y0057057D01*
X0018515Y0056935D01*
X0018612Y0056810D01*
X0018707Y0056683D01*
X0018798Y0056554D01*
X0018887Y0056423D01*
X0018971Y0056289D01*
X0019053Y0056153D01*
X0019131Y0056016D01*
X0019205Y0055876D01*
X0019276Y0055734D01*
X0019344Y0055591D01*
X0019408Y0055446D01*
X0019468Y0055300D01*
X0019524Y0055152D01*
X0019577Y0055003D01*
X0019626Y0054852D01*
X0019671Y0054700D01*
X0019712Y0054547D01*
X0019750Y0054394D01*
X0019783Y0054239D01*
X0019813Y0054083D01*
X0019839Y0053927D01*
X0019860Y0053770D01*
X0019878Y0053613D01*
X0019892Y0053455D01*
X0019902Y0053297D01*
X0019908Y0053139D01*
X0019910Y0052981D01*
X0019908Y0052823D01*
X0019902Y0052665D01*
X0019892Y0052507D01*
X0019878Y0052349D01*
X0019860Y0052192D01*
X0019839Y0052035D01*
X0019813Y0051879D01*
X0019783Y0051723D01*
X0019750Y0051568D01*
X0019712Y0051415D01*
X0019671Y0051262D01*
X0019626Y0051110D01*
X0019577Y0050959D01*
X0019524Y0050810D01*
X0019468Y0050662D01*
X0019408Y0050516D01*
X0019344Y0050371D01*
X0019276Y0050228D01*
X0019205Y0050086D01*
X0019131Y0049946D01*
X0019053Y0049809D01*
X0018971Y0049673D01*
X0018887Y0049539D01*
X0018798Y0049408D01*
X0018707Y0049279D01*
X0018612Y0049152D01*
X0018515Y0049027D01*
X0018414Y0048905D01*
X0018310Y0048786D01*
X0018203Y0048669D01*
X0018093Y0048555D01*
X0017980Y0048444D01*
X0017865Y0048335D01*
X0017747Y0048230D01*
X0017626Y0048128D01*
X0017503Y0048028D01*
X0017377Y0047932D01*
X0017249Y0047839D01*
X0017119Y0047749D01*
X0016986Y0047663D01*
X0016851Y0047579D01*
X0016715Y0047500D01*
X0016576Y0047423D01*
X0016435Y0047351D01*
X0016293Y0047281D01*
X0016149Y0047216D01*
X0016003Y0047154D01*
X0015856Y0047096D01*
X0015707Y0047041D01*
X0015557Y0046990D01*
X0015406Y0046943D01*
X0015254Y0046900D01*
X0015101Y0046861D01*
X0014946Y0046825D01*
X0014791Y0046794D01*
X0014635Y0046766D01*
X0014479Y0046742D01*
X0014322Y0046722D01*
X0014164Y0046706D01*
X0014007Y0046694D01*
X0013848Y0046686D01*
X0013690Y0046682D01*
X0013532Y0046682D01*
X0013374Y0046686D01*
X0013215Y0046694D01*
X0013058Y0046706D01*
X0012900Y0046722D01*
X0012743Y0046742D01*
X0012587Y0046766D01*
X0012431Y0046794D01*
X0012276Y0046825D01*
X0012121Y0046861D01*
X0011968Y0046900D01*
X0011816Y0046943D01*
X0011665Y0046990D01*
X0011515Y0047041D01*
X0011366Y0047096D01*
X0011219Y0047154D01*
X0011073Y0047216D01*
X0010929Y0047281D01*
X0010787Y0047351D01*
X0010646Y0047423D01*
X0010507Y0047500D01*
X0010371Y0047579D01*
X0010236Y0047663D01*
X0010103Y0047749D01*
X0009973Y0047839D01*
X0009845Y0047932D01*
X0009719Y0048028D01*
X0009596Y0048128D01*
X0009475Y0048230D01*
X0009357Y0048335D01*
X0009242Y0048444D01*
X0009129Y0048555D01*
X0009019Y0048669D01*
X0008912Y0048786D01*
X0008808Y0048905D01*
X0008707Y0049027D01*
X0008610Y0049152D01*
X0008515Y0049279D01*
X0008424Y0049408D01*
X0008335Y0049539D01*
X0008251Y0049673D01*
X0008169Y0049809D01*
X0008091Y0049946D01*
X0008017Y0050086D01*
X0007946Y0050228D01*
X0007878Y0050371D01*
X0007814Y0050516D01*
X0007754Y0050662D01*
X0007698Y0050810D01*
X0007645Y0050959D01*
X0007596Y0051110D01*
X0007551Y0051262D01*
X0007510Y0051415D01*
X0007472Y0051568D01*
X0007439Y0051723D01*
X0007409Y0051879D01*
X0007383Y0052035D01*
X0007362Y0052192D01*
X0007344Y0052349D01*
X0007330Y0052507D01*
X0007320Y0052665D01*
X0007314Y0052823D01*
X0007312Y0052981D01*
D11*
X0029359Y0049044D02*
X0037233Y0049044D01*
X0037233Y0017548D01*
X0029359Y0017548D01*
X0029359Y0049044D01*
D12*
X0028796Y0049607D02*
X0028796Y0047607D01*
X0028796Y0049607D02*
X0030796Y0049607D01*
X0028796Y0042607D02*
X0028796Y0040607D01*
X0030796Y0040607D01*
X0035796Y0040607D02*
X0037796Y0040607D01*
X0037796Y0042607D01*
X0037796Y0047607D02*
X0037796Y0049607D01*
X0035796Y0049607D01*
X0035796Y0025985D02*
X0037796Y0025985D01*
X0037796Y0023985D01*
X0037796Y0018985D02*
X0037796Y0016985D01*
X0035796Y0016985D01*
X0030796Y0016985D02*
X0028796Y0016985D01*
X0028796Y0018985D01*
X0028796Y0023985D02*
X0028796Y0025985D01*
X0030796Y0025985D01*
X0018611Y0025796D02*
X0018611Y0030796D01*
X0016111Y0033296D01*
X0018611Y0035796D01*
X0018611Y0040796D01*
X0016111Y0043296D01*
X0011111Y0043296D01*
X0008611Y0040796D01*
X0008611Y0035796D01*
X0011111Y0033296D01*
X0016111Y0033296D01*
X0011111Y0033296D02*
X0008611Y0030796D01*
X0008611Y0025796D01*
X0011111Y0023296D01*
X0016111Y0023296D01*
X0018611Y0025796D01*
M02*
